<svg xmlns="http://www.w3.org/2000/svg" xmlns:xlink="http://www.w3.org/1999/xlink" width="2418" zoomAndPan="magnify" viewBox="0 0 1813.5 383.999986" height="512" preserveAspectRatio="xMidYMid meet" version="1.0"><defs><g/><clipPath id="baa734750b"><path d="M 0 0.0546875 L 1813 0.0546875 L 1813 383.945312 L 0 383.945312 Z M 0 0.0546875 " clip-rule="nonzero"/></clipPath><clipPath id="e23c820fcd"><path d="M 300 67 L 410 67 L 410 318 L 300 318 Z M 300 67 " clip-rule="nonzero"/></clipPath><clipPath id="a0325eca60"><path d="M 375.84375 317.203125 L 229.414062 238.988281 L 333.03125 45.003906 L 479.457031 123.214844 Z M 375.84375 317.203125 " clip-rule="nonzero"/></clipPath><clipPath id="bcd6a0aa63"><path d="M 375.84375 317.203125 C 370.246094 314.210938 364.871094 310.859375 359.71875 307.148438 C 354.570312 303.433594 349.691406 299.394531 345.085938 295.027344 C 340.476562 290.660156 336.183594 286.003906 332.199219 281.0625 C 328.21875 276.117188 324.582031 270.929688 321.296875 265.5 C 318.011719 260.066406 315.101562 254.441406 312.570312 248.617188 C 310.039062 242.796875 307.910156 236.832031 306.179688 230.722656 C 304.449219 224.617188 303.132812 218.421875 302.234375 212.136719 C 301.335938 205.851562 300.859375 199.535156 300.808594 193.1875 C 300.757812 186.839844 301.132812 180.515625 301.929688 174.21875 C 302.726562 167.921875 303.941406 161.703125 305.574219 155.570312 C 307.207031 149.433594 309.242188 143.4375 311.679688 137.574219 C 314.117188 131.710938 316.933594 126.039062 320.132812 120.554688 C 323.332031 115.074219 326.882812 109.828125 330.785156 104.820312 C 334.6875 99.8125 338.90625 95.089844 343.445312 90.648438 C 347.980469 86.210938 352.792969 82.09375 357.882812 78.296875 C 362.972656 74.503906 368.292969 71.066406 373.84375 67.984375 L 408.269531 130.015625 C 402.691406 133.113281 397.625 136.890625 393.066406 141.347656 C 388.511719 145.808594 384.625 150.792969 381.414062 156.304688 C 378.199219 161.8125 375.773438 167.648438 374.132812 173.808594 C 372.492188 179.972656 371.699219 186.242188 371.75 192.617188 C 371.800781 198.996094 372.695312 205.25 374.433594 211.386719 C 376.171875 217.523438 378.691406 223.316406 381.992188 228.773438 C 385.296875 234.230469 389.261719 239.152344 393.886719 243.539062 C 398.515625 247.925781 403.644531 251.621094 409.269531 254.625 Z M 375.84375 317.203125 " clip-rule="nonzero"/></clipPath><clipPath id="37b94a0f97"><path d="M 367 50 L 585 50 L 585 195 L 367 195 Z M 367 50 " clip-rule="nonzero"/></clipPath><clipPath id="683b57556f"><path d="M 568.785156 224.007812 L 348.515625 106.359375 L 401.992188 6.234375 L 622.261719 123.886719 Z M 568.785156 224.007812 " clip-rule="nonzero"/></clipPath><clipPath id="30d3c20e2d"><path d="M 367.730469 71.582031 C 373.121094 68.226562 378.710938 65.25 384.5 62.644531 C 390.289062 60.042969 396.226562 57.835938 402.3125 56.03125 C 408.398438 54.222656 414.578125 52.832031 420.851562 51.855469 C 427.125 50.875 433.433594 50.324219 439.78125 50.191406 C 446.125 50.0625 452.453125 50.355469 458.761719 51.074219 C 465.070312 51.792969 471.300781 52.933594 477.453125 54.488281 C 483.609375 56.042969 489.632812 58.003906 495.523438 60.367188 C 501.417969 62.730469 507.125 65.476562 512.648438 68.605469 C 518.167969 71.738281 523.460938 75.222656 528.515625 79.0625 C 533.570312 82.902344 538.34375 87.0625 542.84375 91.542969 C 547.339844 96.023438 551.515625 100.785156 555.375 105.828125 C 559.230469 110.867188 562.734375 116.144531 565.886719 121.65625 C 569.035156 127.167969 571.800781 132.867188 574.1875 138.75 C 576.570312 144.632812 578.550781 150.648438 580.128906 156.796875 C 581.707031 162.949219 582.867188 169.175781 583.605469 175.480469 C 584.347656 181.785156 584.664062 188.109375 584.558594 194.457031 L 513.625 193.253906 C 513.734375 186.878906 512.996094 180.601562 511.410156 174.421875 C 509.828125 168.246094 507.453125 162.390625 504.289062 156.851562 C 501.125 151.316406 497.285156 146.296875 492.765625 141.796875 C 488.25 137.292969 483.21875 133.472656 477.667969 130.328125 C 472.121094 127.183594 466.257812 124.832031 460.074219 123.269531 C 453.890625 121.707031 447.613281 120.988281 441.234375 121.121094 C 434.859375 121.25 428.617188 122.222656 422.503906 124.039062 C 416.390625 125.855469 410.625 128.445312 405.210938 131.816406 Z M 367.730469 71.582031 " clip-rule="nonzero"/></clipPath><clipPath id="4c5677b8b3"><path d="M 375 187 L 585 187 L 585 334 L 375 334 Z M 375 187 " clip-rule="nonzero"/></clipPath><clipPath id="8e3f492d55"><path d="M 593.609375 433.515625 L 375.84375 317.203125 L 476.117188 129.472656 L 693.882812 245.789062 Z M 593.609375 433.515625 " clip-rule="nonzero"/></clipPath><clipPath id="114bec7a3a"><path d="M 584.5 187.363281 C 584.601562 190.460938 584.605469 193.554688 584.503906 196.648438 C 584.402344 199.742188 584.203125 202.832031 583.898438 205.914062 C 583.597656 208.996094 583.195312 212.0625 582.691406 215.117188 C 582.1875 218.175781 581.582031 221.210938 580.882812 224.226562 C 580.179688 227.242188 579.378906 230.230469 578.480469 233.195312 C 577.582031 236.15625 576.589844 239.089844 575.5 241.988281 C 574.410156 244.886719 573.226562 247.746094 571.949219 250.566406 C 570.671875 253.386719 569.304688 256.160156 567.847656 258.894531 C 566.386719 261.625 564.839844 264.304688 563.207031 266.933594 C 561.570312 269.566406 559.855469 272.140625 558.050781 274.65625 C 556.25 277.175781 554.363281 279.628906 552.402344 282.023438 C 550.4375 284.417969 548.398438 286.746094 546.28125 289.007812 C 544.167969 291.265625 541.980469 293.457031 539.71875 295.574219 C 537.460938 297.691406 535.132812 299.734375 532.742188 301.699219 C 530.347656 303.664062 527.894531 305.546875 525.378906 307.351562 C 522.859375 309.15625 520.289062 310.878906 517.660156 312.511719 C 515.03125 314.148438 512.351562 315.699219 509.621094 317.15625 C 506.890625 318.617188 504.113281 319.988281 501.296875 321.265625 C 498.476562 322.546875 495.617188 323.730469 492.71875 324.824219 C 489.820312 325.914062 486.890625 326.910156 483.929688 327.8125 C 480.964844 328.710938 477.976562 329.511719 474.960938 330.21875 C 471.945312 330.921875 468.910156 331.527344 465.855469 332.03125 C 462.800781 332.539062 459.734375 332.941406 456.652344 333.246094 C 453.570312 333.550781 450.480469 333.753906 447.386719 333.859375 C 444.292969 333.960938 441.199219 333.960938 438.101562 333.859375 C 435.007812 333.761719 431.917969 333.558594 428.839844 333.257812 C 425.757812 332.957031 422.6875 332.550781 419.632812 332.050781 C 416.578125 331.546875 413.542969 330.941406 410.527344 330.242188 C 407.511719 329.539062 404.519531 328.738281 401.558594 327.84375 C 398.59375 326.945312 395.664062 325.949219 392.765625 324.859375 C 389.867188 323.769531 387.007812 322.589844 384.183594 321.3125 C 381.363281 320.035156 378.589844 318.667969 375.855469 317.207031 L 409.273438 254.628906 C 410.640625 255.359375 412.027344 256.042969 413.4375 256.679688 C 414.847656 257.320312 416.277344 257.910156 417.726562 258.453125 C 419.175781 259 420.644531 259.496094 422.125 259.945312 C 423.605469 260.394531 425.101562 260.792969 426.609375 261.144531 C 428.117188 261.496094 429.632812 261.796875 431.164062 262.050781 C 432.691406 262.300781 434.222656 262.503906 435.765625 262.652344 C 437.304688 262.804688 438.851562 262.90625 440.398438 262.957031 C 441.945312 263.003906 443.492188 263.003906 445.039062 262.953125 C 446.585938 262.902344 448.128906 262.800781 449.671875 262.648438 C 451.210938 262.496094 452.746094 262.292969 454.273438 262.039062 C 455.800781 261.789062 457.320312 261.484375 458.828125 261.132812 C 460.335938 260.78125 461.828125 260.378906 463.308594 259.929688 C 464.792969 259.480469 466.257812 258.980469 467.707031 258.4375 C 469.152344 257.890625 470.582031 257.296875 471.992188 256.660156 C 473.402344 256.019531 474.789062 255.332031 476.15625 254.605469 C 477.519531 253.875 478.859375 253.097656 480.175781 252.28125 C 481.488281 251.464844 482.777344 250.601562 484.035156 249.699219 C 485.292969 248.796875 486.519531 247.855469 487.714844 246.875 C 488.914062 245.890625 490.074219 244.871094 491.207031 243.8125 C 492.335938 242.753906 493.429688 241.660156 494.488281 240.527344 C 495.546875 239.398438 496.566406 238.234375 497.546875 237.035156 C 498.527344 235.839844 499.46875 234.613281 500.371094 233.351562 C 501.273438 232.09375 502.132812 230.808594 502.949219 229.492188 C 503.765625 228.175781 504.539062 226.835938 505.269531 225.472656 C 506 224.105469 506.683594 222.71875 507.320312 221.308594 C 507.960938 219.898438 508.550781 218.46875 509.097656 217.019531 C 509.640625 215.570312 510.136719 214.101562 510.585938 212.621094 C 511.035156 211.140625 511.4375 209.644531 511.785156 208.136719 C 512.136719 206.628906 512.4375 205.113281 512.691406 203.582031 C 512.941406 202.054688 513.144531 200.523438 513.296875 198.980469 C 513.445312 197.441406 513.546875 195.894531 513.597656 194.347656 C 513.648438 192.800781 513.648438 191.253906 513.597656 189.707031 Z M 584.5 187.363281 " clip-rule="nonzero"/></clipPath><clipPath id="e0a81ded98"><path d="M 375 254 L 410 254 L 410 318 L 375 318 Z M 375 254 " clip-rule="nonzero"/></clipPath><clipPath id="86ff9cd0ef"><path d="M 375.175781 318.453125 L 373.925781 317.785156 L 408.015625 253.957031 L 409.269531 254.625 Z M 375.175781 318.453125 " clip-rule="nonzero"/></clipPath><clipPath id="9c92ff7103"><path d="M 375.84375 317.203125 C 375.839844 317.199219 375.835938 317.195312 375.832031 317.195312 L 409.261719 254.621094 C 409.265625 254.625 409.265625 254.625 409.269531 254.625 Z M 375.84375 317.203125 " clip-rule="nonzero"/></clipPath><clipPath id="ad34918f10"><path d="M 390 94 L 541 94 L 541 193 L 390 193 Z M 390 94 " clip-rule="nonzero"/></clipPath><clipPath id="34b835e96b"><path d="M 390.199219 109.847656 L 486.375 48.429688 L 567.742188 175.839844 L 471.566406 237.261719 Z M 390.199219 109.847656 " clip-rule="nonzero"/></clipPath><clipPath id="5054ef0d54"><path d="M 390.199219 109.847656 C 393.878906 107.5 397.695312 105.40625 401.65625 103.570312 C 405.613281 101.734375 409.675781 100.171875 413.847656 98.878906 C 418.015625 97.589844 422.25 96.582031 426.554688 95.859375 C 430.859375 95.140625 435.191406 94.707031 439.550781 94.566406 C 443.914062 94.425781 448.265625 94.578125 452.605469 95.019531 C 456.949219 95.464844 461.238281 96.195312 465.484375 97.214844 C 469.726562 98.234375 473.882812 99.535156 477.949219 101.109375 C 482.019531 102.6875 485.964844 104.53125 489.785156 106.636719 C 493.609375 108.746094 497.269531 111.097656 500.777344 113.695312 C 504.28125 116.292969 507.597656 119.117188 510.726562 122.160156 C 513.851562 125.203125 516.761719 128.441406 519.453125 131.875 C 522.148438 135.3125 524.597656 138.910156 526.808594 142.671875 C 529.015625 146.4375 530.964844 150.332031 532.652344 154.355469 C 534.335938 158.378906 535.746094 162.5 536.882812 166.714844 C 538.015625 170.925781 538.863281 175.199219 539.421875 179.527344 C 539.980469 183.855469 540.25 188.199219 540.226562 192.5625 L 491.460938 192.304688 C 491.484375 187.921875 490.925781 183.613281 489.789062 179.382812 C 488.648438 175.148438 486.96875 171.140625 484.75 167.363281 C 482.53125 163.582031 479.851562 160.164062 476.710938 157.105469 C 473.570312 154.046875 470.078125 151.460938 466.242188 149.34375 C 462.402344 147.226562 458.351562 145.65625 454.089844 144.632812 C 449.828125 143.609375 445.503906 143.167969 441.125 143.308594 C 436.742188 143.449219 432.457031 144.167969 428.269531 145.464844 C 424.082031 146.761719 420.140625 148.589844 416.449219 150.949219 Z M 390.199219 109.847656 " clip-rule="nonzero"/></clipPath><clipPath id="2036480ac9"><path d="M 393 187 L 541 187 L 541 290 L 393 290 Z M 393 187 " clip-rule="nonzero"/></clipPath><clipPath id="a0677d6d75"><path d="M 381.085938 256.855469 L 525.757812 164.464844 L 567.757812 230.222656 L 423.082031 322.617188 Z M 381.085938 256.855469 " clip-rule="nonzero"/></clipPath><clipPath id="64d44a1d3a"><path d="M 540.132812 187.6875 C 540.328125 192.046875 540.230469 196.402344 539.839844 200.746094 C 539.453125 205.09375 538.773438 209.394531 537.808594 213.648438 C 536.839844 217.90625 535.59375 222.078125 534.066406 226.164062 C 532.542969 230.253906 530.75 234.222656 528.691406 238.070312 C 526.632812 241.917969 524.324219 245.609375 521.769531 249.148438 C 519.214844 252.683594 516.4375 256.035156 513.429688 259.203125 C 510.425781 262.367188 507.222656 265.316406 503.824219 268.050781 C 500.421875 270.785156 496.855469 273.28125 493.121094 275.539062 C 489.382812 277.792969 485.515625 279.789062 481.511719 281.527344 C 477.507812 283.261719 473.40625 284.726562 469.207031 285.910156 C 465.007812 287.097656 460.75 287.996094 456.425781 288.613281 C 452.105469 289.226562 447.765625 289.550781 443.402344 289.582031 C 439.039062 289.613281 434.691406 289.351562 430.363281 288.800781 C 426.035156 288.25 421.761719 287.410156 417.546875 286.285156 C 413.328125 285.160156 409.207031 283.757812 405.179688 282.078125 C 401.152344 280.402344 397.253906 278.460938 393.484375 276.257812 L 418.089844 234.152344 C 421.875 236.367188 425.886719 238.035156 430.121094 239.167969 C 434.355469 240.296875 438.664062 240.847656 443.046875 240.816406 C 447.433594 240.785156 451.734375 240.171875 455.953125 238.980469 C 460.171875 237.789062 464.15625 236.058594 467.90625 233.792969 C 471.660156 231.527344 475.046875 228.804688 478.0625 225.625 C 481.082031 222.445312 483.625 218.925781 485.691406 215.058594 C 487.761719 211.195312 489.28125 207.125 490.25 202.851562 C 491.222656 198.574219 491.609375 194.25 491.414062 189.867188 Z M 540.132812 187.6875 " clip-rule="nonzero"/></clipPath><clipPath id="9987518a46"><path d="M 345 109 L 421 109 L 421 279 L 345 279 Z M 345 109 " clip-rule="nonzero"/></clipPath><clipPath id="bd129118f4"><path d="M 247.171875 201.191406 L 390.199219 109.847656 L 468.945312 233.152344 L 325.914062 324.492188 Z M 247.171875 201.191406 " clip-rule="nonzero"/></clipPath><clipPath id="f78434b551"><path d="M 397.753906 278.613281 C 395.867188 277.632812 394.011719 276.589844 392.191406 275.488281 C 390.371094 274.386719 388.585938 273.226562 386.839844 272.007812 C 385.097656 270.789062 383.394531 269.511719 381.730469 268.183594 C 380.070312 266.851562 378.453125 265.46875 376.882812 264.03125 C 375.3125 262.597656 373.789062 261.109375 372.316406 259.574219 C 370.84375 258.039062 369.421875 256.457031 368.050781 254.828125 C 366.679688 253.199219 365.367188 251.527344 364.105469 249.8125 C 362.84375 248.097656 361.640625 246.339844 360.496094 244.546875 C 359.351562 242.753906 358.265625 240.925781 357.238281 239.058594 C 356.210938 237.195312 355.25 235.296875 354.347656 233.371094 C 353.445312 231.441406 352.609375 229.484375 351.832031 227.503906 C 351.058594 225.519531 350.351562 223.515625 349.710938 221.484375 C 349.066406 219.457031 348.492188 217.40625 347.984375 215.339844 C 347.476562 213.273438 347.035156 211.191406 346.664062 209.097656 C 346.292969 207 345.988281 204.894531 345.753906 202.78125 C 345.519531 200.664062 345.355469 198.542969 345.261719 196.417969 C 345.164062 194.289062 345.140625 192.164062 345.183594 190.035156 C 345.226562 187.90625 345.339844 185.78125 345.523438 183.660156 C 345.707031 181.542969 345.957031 179.429688 346.28125 177.324219 C 346.601562 175.222656 346.992188 173.128906 347.449219 171.050781 C 347.90625 168.972656 348.433594 166.910156 349.027344 164.867188 C 349.621094 162.824219 350.28125 160.800781 351.003906 158.800781 C 351.730469 156.796875 352.519531 154.824219 353.375 152.875 C 354.230469 150.925781 355.148438 149.003906 356.128906 147.117188 C 357.109375 145.226562 358.152344 143.371094 359.253906 141.550781 C 360.355469 139.730469 361.515625 137.945312 362.734375 136.203125 C 363.953125 134.457031 365.226562 132.753906 366.558594 131.089844 C 367.886719 129.429688 369.273438 127.8125 370.707031 126.242188 C 372.144531 124.671875 373.628906 123.148438 375.164062 121.675781 C 376.703125 120.203125 378.285156 118.78125 379.914062 117.410156 C 381.542969 116.039062 383.214844 114.722656 384.929688 113.464844 C 386.644531 112.203125 388.398438 111 390.191406 109.855469 L 416.445312 150.953125 C 414.648438 152.097656 412.933594 153.359375 411.304688 154.730469 C 409.671875 156.101562 408.140625 157.574219 406.703125 159.144531 C 405.265625 160.71875 403.933594 162.378906 402.714844 164.125 C 401.496094 165.871094 400.394531 167.691406 399.414062 169.582031 C 398.429688 171.472656 397.578125 173.421875 396.851562 175.425781 C 396.125 177.425781 395.53125 179.46875 395.074219 181.550781 C 394.613281 183.632812 394.292969 185.734375 394.109375 187.855469 C 393.925781 189.980469 393.882812 192.105469 393.976562 194.234375 C 394.074219 196.363281 394.308594 198.476562 394.679688 200.574219 C 395.050781 202.671875 395.558594 204.734375 396.203125 206.765625 C 396.847656 208.800781 397.617188 210.78125 398.519531 212.710938 C 399.425781 214.640625 400.449219 216.503906 401.597656 218.296875 C 402.742188 220.09375 404.003906 221.808594 405.375 223.4375 C 406.746094 225.070312 408.21875 226.605469 409.789062 228.042969 C 411.363281 229.480469 413.023438 230.808594 414.769531 232.027344 C 416.515625 233.25 418.335938 234.351562 420.226562 235.332031 Z M 397.753906 278.613281 " clip-rule="nonzero"/></clipPath><clipPath id="9c88b7f5fe"><path d="M 390 109 L 417 109 L 417 151 L 390 151 Z M 390 109 " clip-rule="nonzero"/></clipPath><clipPath id="f8a872cf03"><path d="M 389.675781 109.027344 L 390.496094 108.5 L 417.269531 150.425781 L 416.449219 150.949219 Z M 389.675781 109.027344 " clip-rule="nonzero"/></clipPath><clipPath id="55e5e8ffac"><path d="M 390.199219 109.847656 C 390.203125 109.847656 390.207031 109.84375 390.207031 109.84375 L 416.453125 150.945312 C 416.449219 150.949219 416.449219 150.949219 416.449219 150.949219 Z M 390.199219 109.847656 " clip-rule="nonzero"/></clipPath></defs><g clip-path="url(#baa734750b)"><path fill="#ffffff" d="M 0 0.0546875 L 1813.5 0.0546875 L 1813.5 1558.554688 L 0 1558.554688 Z M 0 0.0546875 " fill-opacity="1" fill-rule="nonzero"/><path fill="#ffffff" d="M 0 0.0546875 L 1813.5 0.0546875 L 1813.5 384.054688 L 0 384.054688 Z M 0 0.0546875 " fill-opacity="1" fill-rule="nonzero"/><path fill="#ffffff" d="M 0 0.0546875 L 1813.5 0.0546875 L 1813.5 384.054688 L 0 384.054688 Z M 0 0.0546875 " fill-opacity="1" fill-rule="nonzero"/></g><g fill="#365b6d" fill-opacity="1"><g transform="translate(664.344406, 218.379059)"><g><path d="M 11.265625 -154.96875 L 59.359375 -154.96875 C 73.890625 -154.96875 85.472656 -151.867188 94.109375 -145.671875 C 102.753906 -139.472656 107.078125 -129.425781 107.078125 -115.53125 C 107.078125 -100 100.625 -88.914062 87.71875 -82.28125 C 109.757812 -78.394531 120.78125 -65.367188 120.78125 -43.203125 C 120.78125 -30.179688 116.269531 -19.722656 107.25 -11.828125 C 98.238281 -3.941406 85.84375 0 70.0625 0 L 11.265625 0 Z M 46.578125 -94.296875 L 49.40625 -94.296875 C 57.289062 -94.296875 63.175781 -95.671875 67.0625 -98.421875 C 70.945312 -101.179688 72.890625 -105.691406 72.890625 -111.953125 C 72.890625 -122.472656 65.0625 -127.734375 49.40625 -127.734375 L 46.578125 -127.734375 Z M 46.578125 -27.234375 L 57.671875 -27.234375 C 74.953125 -27.234375 83.59375 -32.992188 83.59375 -44.515625 C 83.59375 -51.398438 81.429688 -56.34375 77.109375 -59.34375 C 72.785156 -62.351562 66.304688 -63.859375 57.671875 -63.859375 L 46.578125 -63.859375 Z M 46.578125 -27.234375 "/></g></g></g><g fill="#365b6d" fill-opacity="1"><g transform="translate(836.407139, 218.379059)"><g><path d="M 46.578125 -154.96875 L 46.578125 0 L 11.265625 0 L 11.265625 -154.96875 Z M 46.578125 -154.96875 "/></g></g></g><g fill="#365b6d" fill-opacity="1"><g transform="translate(941.222679, 218.379059)"><g><path d="M 11.265625 -154.96875 L 59.359375 -154.96875 C 73.890625 -154.96875 85.472656 -151.867188 94.109375 -145.671875 C 102.753906 -139.472656 107.078125 -129.425781 107.078125 -115.53125 C 107.078125 -100 100.625 -88.914062 87.71875 -82.28125 C 109.757812 -78.394531 120.78125 -65.367188 120.78125 -43.203125 C 120.78125 -30.179688 116.269531 -19.722656 107.25 -11.828125 C 98.238281 -3.941406 85.84375 0 70.0625 0 L 11.265625 0 Z M 46.578125 -94.296875 L 49.40625 -94.296875 C 57.289062 -94.296875 63.175781 -95.671875 67.0625 -98.421875 C 70.945312 -101.179688 72.890625 -105.691406 72.890625 -111.953125 C 72.890625 -122.472656 65.0625 -127.734375 49.40625 -127.734375 L 46.578125 -127.734375 Z M 46.578125 -27.234375 L 57.671875 -27.234375 C 74.953125 -27.234375 83.59375 -32.992188 83.59375 -44.515625 C 83.59375 -51.398438 81.429688 -56.34375 77.109375 -59.34375 C 72.785156 -62.351562 66.304688 -63.859375 57.671875 -63.859375 L 46.578125 -63.859375 Z M 46.578125 -27.234375 "/></g></g></g><g fill="#365b6d" fill-opacity="1"><g transform="translate(1113.285411, 218.379059)"><g><path d="M 46.578125 -154.96875 L 46.578125 -31 L 99.9375 -31 L 99.9375 0 L 11.265625 0 L 11.265625 -154.96875 Z M 46.578125 -154.96875 "/></g></g></g><g fill="#365b6d" fill-opacity="1"><g transform="translate(1266.376197, 218.379059)"><g><path d="M 46.578125 -154.96875 L 46.578125 0 L 11.265625 0 L 11.265625 -154.96875 Z M 46.578125 -154.96875 "/></g></g></g><g fill="#365b6d" fill-opacity="1"><g transform="translate(1371.191737, 218.379059)"><g><path d="M 93.734375 -31.9375 C 99.117188 -31.9375 104.347656 -32.75 109.421875 -34.375 C 114.492188 -36 118.21875 -37.566406 120.59375 -39.078125 L 124.171875 -41.515625 L 139.1875 -11.453125 C 138.6875 -11.078125 138 -10.578125 137.125 -9.953125 C 136.25 -9.328125 134.210938 -8.164062 131.015625 -6.46875 C 127.828125 -4.78125 124.414062 -3.3125 120.78125 -2.0625 C 117.15625 -0.8125 112.394531 0.3125 106.5 1.3125 C 100.613281 2.3125 94.539062 2.8125 88.28125 2.8125 C 73.882812 2.8125 60.234375 -0.722656 47.328125 -7.796875 C 34.429688 -14.867188 24.039062 -24.601562 16.15625 -37 C 8.269531 -49.40625 4.328125 -62.804688 4.328125 -77.203125 C 4.328125 -88.097656 6.640625 -98.550781 11.265625 -108.5625 C 15.898438 -118.582031 22.066406 -127.160156 29.765625 -134.296875 C 37.472656 -141.441406 46.457031 -147.140625 56.71875 -151.390625 C 66.988281 -155.648438 77.507812 -157.78125 88.28125 -157.78125 C 98.300781 -157.78125 107.535156 -156.59375 115.984375 -154.21875 C 124.441406 -151.84375 130.425781 -149.460938 133.9375 -147.078125 L 139.1875 -143.515625 L 124.171875 -113.453125 C 123.285156 -114.203125 121.96875 -115.109375 120.21875 -116.171875 C 118.46875 -117.242188 114.960938 -118.65625 109.703125 -120.40625 C 104.441406 -122.15625 99.117188 -123.03125 93.734375 -123.03125 C 85.210938 -123.03125 77.570312 -121.648438 70.8125 -118.890625 C 64.050781 -116.140625 58.695312 -112.507812 54.75 -108 C 50.8125 -103.5 47.804688 -98.648438 45.734375 -93.453125 C 43.671875 -88.253906 42.640625 -82.960938 42.640625 -77.578125 C 42.640625 -65.804688 47.050781 -55.253906 55.875 -45.921875 C 64.707031 -36.597656 77.328125 -31.9375 93.734375 -31.9375 Z M 93.734375 -31.9375 "/></g></g></g><g fill="#365b6d" fill-opacity="1"><g transform="translate(675.000779, 324.03281)"><g><path d="M 21.4375 -59.78125 L 36.796875 -16.421875 L 52.0625 -59.78125 L 68.25 -59.78125 L 68.25 0 L 55.890625 0 L 55.890625 -16.34375 L 57.109375 -44.546875 L 40.984375 0 L 32.515625 0 L 16.421875 -44.515625 L 17.65625 -16.34375 L 17.65625 0 L 5.34375 0 L 5.34375 -59.78125 Z M 21.4375 -59.78125 "/></g></g></g><g fill="#365b6d" fill-opacity="1"><g transform="translate(757.068183, 324.03281)"><g><path d="M 30.296875 0 C 29.753906 -1.0625 29.359375 -2.390625 29.109375 -3.984375 C 26.234375 -0.773438 22.5 0.828125 17.90625 0.828125 C 13.550781 0.828125 9.941406 -0.429688 7.078125 -2.953125 C 4.222656 -5.472656 2.796875 -8.648438 2.796875 -12.484375 C 2.796875 -17.191406 4.539062 -20.800781 8.03125 -23.3125 C 11.519531 -25.832031 16.5625 -27.109375 23.15625 -27.140625 L 28.625 -27.140625 L 28.625 -29.6875 C 28.625 -31.738281 28.09375 -33.378906 27.03125 -34.609375 C 25.976562 -35.847656 24.316406 -36.46875 22.046875 -36.46875 C 20.046875 -36.46875 18.476562 -35.988281 17.34375 -35.03125 C 16.207031 -34.070312 15.640625 -32.753906 15.640625 -31.078125 L 3.78125 -31.078125 C 3.78125 -33.648438 4.570312 -36.03125 6.15625 -38.21875 C 7.75 -40.414062 9.992188 -42.132812 12.890625 -43.375 C 15.796875 -44.625 19.054688 -45.25 22.671875 -45.25 C 28.140625 -45.25 32.484375 -43.875 35.703125 -41.125 C 38.921875 -38.375 40.53125 -34.503906 40.53125 -29.515625 L 40.53125 -10.265625 C 40.550781 -6.046875 41.140625 -2.859375 42.296875 -0.703125 L 42.296875 0 Z M 20.484375 -8.25 C 22.242188 -8.25 23.859375 -8.640625 25.328125 -9.421875 C 26.804688 -10.203125 27.90625 -11.25 28.625 -12.5625 L 28.625 -20.203125 L 24.1875 -20.203125 C 18.25 -20.203125 15.085938 -18.148438 14.703125 -14.046875 L 14.65625 -13.34375 C 14.65625 -11.863281 15.175781 -10.644531 16.21875 -9.6875 C 17.257812 -8.726562 18.679688 -8.25 20.484375 -8.25 Z M 20.484375 -8.25 "/></g></g></g><g fill="#365b6d" fill-opacity="1"><g transform="translate(810.558984, 324.03281)"><g><path d="M 20.6875 -17.828125 L 16.421875 -13.546875 L 16.421875 0 L 4.5625 0 L 4.5625 -63.078125 L 16.421875 -63.078125 L 16.421875 -28.125 L 18.71875 -31.078125 L 30.09375 -44.421875 L 44.34375 -44.421875 L 28.296875 -25.90625 L 45.75 0 L 32.109375 0 Z M 20.6875 -17.828125 "/></g></g></g><g fill="#365b6d" fill-opacity="1"><g transform="translate(863.885544, 324.03281)"><g><path d="M 25 0.828125 C 18.488281 0.828125 13.1875 -1.171875 9.09375 -5.171875 C 5 -9.171875 2.953125 -14.492188 2.953125 -21.140625 L 2.953125 -22.296875 C 2.953125 -26.753906 3.8125 -30.742188 5.53125 -34.265625 C 7.257812 -37.785156 9.703125 -40.492188 12.859375 -42.390625 C 16.023438 -44.296875 19.632812 -45.25 23.6875 -45.25 C 29.769531 -45.25 34.554688 -43.332031 38.046875 -39.5 C 41.535156 -35.664062 43.28125 -30.234375 43.28125 -23.203125 L 43.28125 -18.359375 L 14.984375 -18.359375 C 15.367188 -15.453125 16.523438 -13.125 18.453125 -11.375 C 20.390625 -9.625 22.832031 -8.75 25.78125 -8.75 C 30.351562 -8.75 33.925781 -10.40625 36.5 -13.71875 L 42.328125 -7.1875 C 40.554688 -4.664062 38.148438 -2.695312 35.109375 -1.28125 C 32.066406 0.125 28.695312 0.828125 25 0.828125 Z M 23.65625 -35.640625 C 21.300781 -35.640625 19.390625 -34.84375 17.921875 -33.25 C 16.453125 -31.664062 15.515625 -29.394531 15.109375 -26.4375 L 31.625 -26.4375 L 31.625 -27.390625 C 31.5625 -30.015625 30.84375 -32.046875 29.46875 -33.484375 C 28.101562 -34.921875 26.164062 -35.640625 23.65625 -35.640625 Z M 23.65625 -35.640625 "/></g></g></g><g fill="#365b6d" fill-opacity="1"><g transform="translate(917.745877, 324.03281)"><g/></g></g><g fill="#365b6d" fill-opacity="1"><g transform="translate(947.094381, 324.03281)"><g><path d="M 39.09375 -12.3125 L 17.484375 -12.3125 L 13.390625 0 L 0.28125 0 L 22.546875 -59.78125 L 33.953125 -59.78125 L 56.34375 0 L 43.234375 0 Z M 20.8125 -22.296875 L 35.765625 -22.296875 L 28.25 -44.671875 Z M 20.8125 -22.296875 "/></g></g></g><g fill="#365b6d" fill-opacity="1"><g transform="translate(1012.081523, 324.03281)"><g/></g></g><g fill="#365b6d" fill-opacity="1"><g transform="translate(1041.430028, 324.03281)"><g><path d="M 5.34375 0 L 5.34375 -59.78125 L 23.734375 -59.78125 C 28.992188 -59.78125 33.695312 -58.597656 37.84375 -56.234375 C 41.988281 -53.867188 45.222656 -50.5 47.546875 -46.125 C 49.878906 -41.757812 51.046875 -36.800781 51.046875 -31.25 L 51.046875 -28.5 C 51.046875 -22.9375 49.898438 -17.992188 47.609375 -13.671875 C 45.328125 -9.347656 42.101562 -5.992188 37.9375 -3.609375 C 33.78125 -1.234375 29.085938 -0.03125 23.859375 0 Z M 17.65625 -49.8125 L 17.65625 -9.890625 L 23.609375 -9.890625 C 28.429688 -9.890625 32.113281 -11.460938 34.65625 -14.609375 C 37.195312 -17.765625 38.5 -22.269531 38.5625 -28.125 L 38.5625 -31.28125 C 38.5625 -37.363281 37.300781 -41.972656 34.78125 -45.109375 C 32.257812 -48.242188 28.578125 -49.8125 23.734375 -49.8125 Z M 17.65625 -49.8125 "/></g></g></g><g fill="#365b6d" fill-opacity="1"><g transform="translate(1104.487428, 324.03281)"><g><path d="M 17.078125 0 L 5.171875 0 L 5.171875 -44.421875 L 17.078125 -44.421875 Z M 4.46875 -55.921875 C 4.46875 -57.703125 5.0625 -59.164062 6.25 -60.3125 C 7.445312 -61.46875 9.070312 -62.046875 11.125 -62.046875 C 13.15625 -62.046875 14.769531 -61.46875 15.96875 -60.3125 C 17.175781 -59.164062 17.78125 -57.703125 17.78125 -55.921875 C 17.78125 -54.117188 17.171875 -52.640625 15.953125 -51.484375 C 14.734375 -50.335938 13.125 -49.765625 11.125 -49.765625 C 9.125 -49.765625 7.515625 -50.335938 6.296875 -51.484375 C 5.078125 -52.640625 4.46875 -54.117188 4.46875 -55.921875 Z M 4.46875 -55.921875 "/></g></g></g><g fill="#365b6d" fill-opacity="1"><g transform="translate(1135.190858, 324.03281)"><g><path d="M 7.796875 0 L 7.796875 -35.71875 L 1.1875 -35.71875 L 1.1875 -44.421875 L 7.796875 -44.421875 L 7.796875 -48.203125 C 7.796875 -53.179688 9.226562 -57.046875 12.09375 -59.796875 C 14.957031 -62.554688 18.960938 -63.9375 24.109375 -63.9375 C 25.742188 -63.9375 27.753906 -63.660156 30.140625 -63.109375 L 30.015625 -53.90625 C 29.023438 -54.15625 27.820312 -54.28125 26.40625 -54.28125 C 21.9375 -54.28125 19.703125 -52.1875 19.703125 -48 L 19.703125 -44.421875 L 28.53125 -44.421875 L 28.53125 -35.71875 L 19.703125 -35.71875 L 19.703125 0 Z M 7.796875 0 "/></g></g></g><g fill="#365b6d" fill-opacity="1"><g transform="translate(1173.736403, 324.03281)"><g><path d="M 7.796875 0 L 7.796875 -35.71875 L 1.1875 -35.71875 L 1.1875 -44.421875 L 7.796875 -44.421875 L 7.796875 -48.203125 C 7.796875 -53.179688 9.226562 -57.046875 12.09375 -59.796875 C 14.957031 -62.554688 18.960938 -63.9375 24.109375 -63.9375 C 25.742188 -63.9375 27.753906 -63.660156 30.140625 -63.109375 L 30.015625 -53.90625 C 29.023438 -54.15625 27.820312 -54.28125 26.40625 -54.28125 C 21.9375 -54.28125 19.703125 -52.1875 19.703125 -48 L 19.703125 -44.421875 L 28.53125 -44.421875 L 28.53125 -35.71875 L 19.703125 -35.71875 L 19.703125 0 Z M 7.796875 0 "/></g></g></g><g fill="#365b6d" fill-opacity="1"><g transform="translate(1212.281949, 324.03281)"><g><path d="M 25 0.828125 C 18.488281 0.828125 13.1875 -1.171875 9.09375 -5.171875 C 5 -9.171875 2.953125 -14.492188 2.953125 -21.140625 L 2.953125 -22.296875 C 2.953125 -26.753906 3.8125 -30.742188 5.53125 -34.265625 C 7.257812 -37.785156 9.703125 -40.492188 12.859375 -42.390625 C 16.023438 -44.296875 19.632812 -45.25 23.6875 -45.25 C 29.769531 -45.25 34.554688 -43.332031 38.046875 -39.5 C 41.535156 -35.664062 43.28125 -30.234375 43.28125 -23.203125 L 43.28125 -18.359375 L 14.984375 -18.359375 C 15.367188 -15.453125 16.523438 -13.125 18.453125 -11.375 C 20.390625 -9.625 22.832031 -8.75 25.78125 -8.75 C 30.351562 -8.75 33.925781 -10.40625 36.5 -13.71875 L 42.328125 -7.1875 C 40.554688 -4.664062 38.148438 -2.695312 35.109375 -1.28125 C 32.066406 0.125 28.695312 0.828125 25 0.828125 Z M 23.65625 -35.640625 C 21.300781 -35.640625 19.390625 -34.84375 17.921875 -33.25 C 16.453125 -31.664062 15.515625 -29.394531 15.109375 -26.4375 L 31.625 -26.4375 L 31.625 -27.390625 C 31.5625 -30.015625 30.84375 -32.046875 29.46875 -33.484375 C 28.101562 -34.921875 26.164062 -35.640625 23.65625 -35.640625 Z M 23.65625 -35.640625 "/></g></g></g><g fill="#365b6d" fill-opacity="1"><g transform="translate(1266.142255, 324.03281)"><g><path d="M 29.515625 -33.296875 C 27.898438 -33.515625 26.476562 -33.625 25.25 -33.625 C 20.757812 -33.625 17.816406 -32.109375 16.421875 -29.078125 L 16.421875 0 L 4.5625 0 L 4.5625 -44.421875 L 15.765625 -44.421875 L 16.09375 -39.125 C 18.476562 -43.207031 21.773438 -45.25 25.984375 -45.25 C 27.304688 -45.25 28.539062 -45.070312 29.6875 -44.71875 Z M 29.515625 -33.296875 "/></g></g></g><g fill="#365b6d" fill-opacity="1"><g transform="translate(1305.221559, 324.03281)"><g><path d="M 25 0.828125 C 18.488281 0.828125 13.1875 -1.171875 9.09375 -5.171875 C 5 -9.171875 2.953125 -14.492188 2.953125 -21.140625 L 2.953125 -22.296875 C 2.953125 -26.753906 3.8125 -30.742188 5.53125 -34.265625 C 7.257812 -37.785156 9.703125 -40.492188 12.859375 -42.390625 C 16.023438 -44.296875 19.632812 -45.25 23.6875 -45.25 C 29.769531 -45.25 34.554688 -43.332031 38.046875 -39.5 C 41.535156 -35.664062 43.28125 -30.234375 43.28125 -23.203125 L 43.28125 -18.359375 L 14.984375 -18.359375 C 15.367188 -15.453125 16.523438 -13.125 18.453125 -11.375 C 20.390625 -9.625 22.832031 -8.75 25.78125 -8.75 C 30.351562 -8.75 33.925781 -10.40625 36.5 -13.71875 L 42.328125 -7.1875 C 40.554688 -4.664062 38.148438 -2.695312 35.109375 -1.28125 C 32.066406 0.125 28.695312 0.828125 25 0.828125 Z M 23.65625 -35.640625 C 21.300781 -35.640625 19.390625 -34.84375 17.921875 -33.25 C 16.453125 -31.664062 15.515625 -29.394531 15.109375 -26.4375 L 31.625 -26.4375 L 31.625 -27.390625 C 31.5625 -30.015625 30.84375 -32.046875 29.46875 -33.484375 C 28.101562 -34.921875 26.164062 -35.640625 23.65625 -35.640625 Z M 23.65625 -35.640625 "/></g></g></g><g fill="#365b6d" fill-opacity="1"><g transform="translate(1359.081865, 324.03281)"><g><path d="M 15.484375 -44.421875 L 15.84375 -39.296875 C 19.019531 -43.265625 23.28125 -45.25 28.625 -45.25 C 33.332031 -45.25 36.832031 -43.863281 39.125 -41.09375 C 41.425781 -38.332031 42.601562 -34.203125 42.65625 -28.703125 L 42.65625 0 L 30.796875 0 L 30.796875 -28.421875 C 30.796875 -30.929688 30.25 -32.753906 29.15625 -33.890625 C 28.0625 -35.023438 26.238281 -35.59375 23.6875 -35.59375 C 20.351562 -35.59375 17.847656 -34.171875 16.171875 -31.328125 L 16.171875 0 L 4.3125 0 L 4.3125 -44.421875 Z M 15.484375 -44.421875 "/></g></g></g><g fill="#365b6d" fill-opacity="1"><g transform="translate(1414.584504, 324.03281)"><g><path d="M 23.03125 -8.75 C 25.226562 -8.75 27.007812 -9.347656 28.375 -10.546875 C 29.738281 -11.753906 30.453125 -13.359375 30.515625 -15.359375 L 41.640625 -15.359375 C 41.609375 -12.347656 40.785156 -9.585938 39.171875 -7.078125 C 37.554688 -4.578125 35.34375 -2.632812 32.53125 -1.25 C 29.726562 0.132812 26.628906 0.828125 23.234375 0.828125 C 16.890625 0.828125 11.878906 -1.191406 8.203125 -5.234375 C 4.535156 -9.273438 2.703125 -14.851562 2.703125 -21.96875 L 2.703125 -22.75 C 2.703125 -29.59375 4.519531 -35.050781 8.15625 -39.125 C 11.800781 -43.207031 16.800781 -45.25 23.15625 -45.25 C 28.71875 -45.25 33.171875 -43.664062 36.515625 -40.5 C 39.867188 -37.34375 41.578125 -33.132812 41.640625 -27.875 L 30.515625 -27.875 C 30.453125 -30.175781 29.738281 -32.046875 28.375 -33.484375 C 27.007812 -34.921875 25.203125 -35.640625 22.953125 -35.640625 C 20.191406 -35.640625 18.101562 -34.632812 16.6875 -32.625 C 15.28125 -30.613281 14.578125 -27.347656 14.578125 -22.828125 L 14.578125 -21.59375 C 14.578125 -17.019531 15.273438 -13.734375 16.671875 -11.734375 C 18.066406 -9.742188 20.1875 -8.75 23.03125 -8.75 Z M 23.03125 -8.75 "/></g></g></g><g fill="#365b6d" fill-opacity="1"><g transform="translate(1466.843534, 324.03281)"><g><path d="M 25 0.828125 C 18.488281 0.828125 13.1875 -1.171875 9.09375 -5.171875 C 5 -9.171875 2.953125 -14.492188 2.953125 -21.140625 L 2.953125 -22.296875 C 2.953125 -26.753906 3.8125 -30.742188 5.53125 -34.265625 C 7.257812 -37.785156 9.703125 -40.492188 12.859375 -42.390625 C 16.023438 -44.296875 19.632812 -45.25 23.6875 -45.25 C 29.769531 -45.25 34.554688 -43.332031 38.046875 -39.5 C 41.535156 -35.664062 43.28125 -30.234375 43.28125 -23.203125 L 43.28125 -18.359375 L 14.984375 -18.359375 C 15.367188 -15.453125 16.523438 -13.125 18.453125 -11.375 C 20.390625 -9.625 22.832031 -8.75 25.78125 -8.75 C 30.351562 -8.75 33.925781 -10.40625 36.5 -13.71875 L 42.328125 -7.1875 C 40.554688 -4.664062 38.148438 -2.695312 35.109375 -1.28125 C 32.066406 0.125 28.695312 0.828125 25 0.828125 Z M 23.65625 -35.640625 C 21.300781 -35.640625 19.390625 -34.84375 17.921875 -33.25 C 16.453125 -31.664062 15.515625 -29.394531 15.109375 -26.4375 L 31.625 -26.4375 L 31.625 -27.390625 C 31.5625 -30.015625 30.84375 -32.046875 29.46875 -33.484375 C 28.101562 -34.921875 26.164062 -35.640625 23.65625 -35.640625 Z M 23.65625 -35.640625 "/></g></g></g><g clip-path="url(#e23c820fcd)"><g clip-path="url(#a0325eca60)"><g clip-path="url(#bcd6a0aa63)"><path fill="#365b6d" d="M 500.996094 384.050781 L 250.691406 250.355469 L 384.386719 0.0507812 L 634.691406 133.742188 Z M 500.996094 384.050781 " fill-opacity="1" fill-rule="nonzero"/></g></g></g><g clip-path="url(#37b94a0f97)"><g clip-path="url(#683b57556f)"><g clip-path="url(#30d3c20e2d)"><path fill="#6b7e94" d="M 500.996094 384.050781 L 250.691406 250.355469 L 384.386719 0.0507812 L 634.691406 133.742188 Z M 500.996094 384.050781 " fill-opacity="1" fill-rule="nonzero"/></g></g></g><g clip-path="url(#4c5677b8b3)"><g clip-path="url(#8e3f492d55)"><g clip-path="url(#114bec7a3a)"><path fill="#9fa3b8" d="M 500.996094 384.050781 L 250.691406 250.355469 L 384.386719 0.0507812 L 634.691406 133.742188 Z M 500.996094 384.050781 " fill-opacity="1" fill-rule="nonzero"/></g></g></g><g clip-path="url(#e0a81ded98)"><g clip-path="url(#86ff9cd0ef)"><g clip-path="url(#9c92ff7103)"><path fill="#d1cbdb" d="M 500.996094 384.050781 L 250.691406 250.355469 L 384.386719 0.0507812 L 634.691406 133.742188 Z M 500.996094 384.050781 " fill-opacity="1" fill-rule="nonzero"/></g></g></g><g clip-path="url(#ad34918f10)"><g clip-path="url(#34b835e96b)"><g clip-path="url(#5054ef0d54)"><path fill="#365b6d" d="M 308 162.34375 L 472.402344 57.351562 L 577.390625 221.753906 L 412.988281 326.746094 Z M 308 162.34375 " fill-opacity="1" fill-rule="nonzero"/></g></g></g><g clip-path="url(#2036480ac9)"><g clip-path="url(#a0677d6d75)"><g clip-path="url(#64d44a1d3a)"><path fill="#6b7e94" d="M 308 162.34375 L 472.402344 57.351562 L 577.390625 221.753906 L 412.988281 326.746094 Z M 308 162.34375 " fill-opacity="1" fill-rule="nonzero"/></g></g></g><g clip-path="url(#9987518a46)"><g clip-path="url(#bd129118f4)"><g clip-path="url(#f78434b551)"><path fill="#9fa3b8" d="M 308 162.34375 L 472.402344 57.351562 L 577.390625 221.753906 L 412.988281 326.746094 Z M 308 162.34375 " fill-opacity="1" fill-rule="nonzero"/></g></g></g><g clip-path="url(#9c88b7f5fe)"><g clip-path="url(#f8a872cf03)"><g clip-path="url(#55e5e8ffac)"><path fill="#d1cbdb" d="M 308 162.34375 L 472.402344 57.351562 L 577.390625 221.753906 L 412.988281 326.746094 Z M 308 162.34375 " fill-opacity="1" fill-rule="nonzero"/></g></g></g></svg>