<svg xmlns="http://www.w3.org/2000/svg" xmlns:xlink="http://www.w3.org/1999/xlink" width="2418" zoomAndPan="magnify" viewBox="0 0 1813.5 383.999986" height="512" preserveAspectRatio="xMidYMid meet" version="1.0"><defs><filter x="0%" y="0%" width="100%" height="100%" id="79bd4b509a"><feColorMatrix values="0 0 0 0 1 0 0 0 0 1 0 0 0 0 1 0 0 0 1 0" color-interpolation-filters="sRGB"/></filter><g/><clipPath id="e2ef57c88e"><path d="M 0 0.0546875 L 1813 0.0546875 L 1813 383.945312 L 0 383.945312 Z M 0 0.0546875 " clip-rule="nonzero"/></clipPath><mask id="f338113e00"><g filter="url(#79bd4b509a)"><rect x="-181.35" width="2176.2" fill="#000000" y="-38.399999" height="460.799983" fill-opacity="0.2"/></g></mask><clipPath id="c69b98274a"><rect x="0" width="235" y="0" height="321"/></clipPath><mask id="0f06669042"><g filter="url(#79bd4b509a)"><rect x="-181.35" width="2176.2" fill="#000000" y="-38.399999" height="460.799983" fill-opacity="0.2"/></g></mask><clipPath id="4eb11da39e"><rect x="0" width="235" y="0" height="321"/></clipPath><mask id="ab290d43c2"><g filter="url(#79bd4b509a)"><rect x="-181.35" width="2176.2" fill="#000000" y="-38.399999" height="460.799983" fill-opacity="0.2"/></g></mask><clipPath id="baedefd1a3"><rect x="0" width="235" y="0" height="321"/></clipPath><mask id="8ff9b47958"><g filter="url(#79bd4b509a)"><rect x="-181.35" width="2176.2" fill="#000000" y="-38.399999" height="460.799983" fill-opacity="0.2"/></g></mask><clipPath id="17cae84b87"><rect x="0" width="235" y="0" height="321"/></clipPath><mask id="8578ebdd24"><g filter="url(#79bd4b509a)"><rect x="-181.35" width="2176.2" fill="#000000" y="-38.399999" height="460.799983" fill-opacity="0.2"/></g></mask><clipPath id="331fea44c8"><rect x="0" width="235" y="0" height="321"/></clipPath><mask id="52f73ceae9"><g filter="url(#79bd4b509a)"><rect x="-181.35" width="2176.2" fill="#000000" y="-38.399999" height="460.799983" fill-opacity="0.2"/></g></mask><clipPath id="44175eda4d"><rect x="0" width="235" y="0" height="321"/></clipPath><mask id="34040330ff"><g filter="url(#79bd4b509a)"><rect x="-181.35" width="2176.2" fill="#000000" y="-38.399999" height="460.799983" fill-opacity="0.2"/></g></mask><clipPath id="65ba68345e"><rect x="0" width="403" y="0" height="256"/></clipPath><mask id="59b384b4d7"><g filter="url(#79bd4b509a)"><rect x="-181.35" width="2176.2" fill="#000000" y="-38.399999" height="460.799983" fill-opacity="0.2"/></g></mask><clipPath id="fc4f69f64c"><rect x="0" width="1203" y="0" height="256"/></clipPath><mask id="aef6702991"><g filter="url(#79bd4b509a)"><rect x="-181.35" width="2176.2" fill="#000000" y="-38.399999" height="460.799983" fill-opacity="0.2"/></g></mask><clipPath id="59a392e607"><rect x="0" width="803" y="0" height="256"/></clipPath><mask id="461274c749"><g filter="url(#79bd4b509a)"><rect x="-181.35" width="2176.2" fill="#000000" y="-38.399999" height="460.799983" fill-opacity="0.2"/></g></mask><clipPath id="e6bf2d7a0e"><rect x="0" width="603" y="0" height="256"/></clipPath><mask id="1a37001fec"><g filter="url(#79bd4b509a)"><rect x="-181.35" width="2176.2" fill="#000000" y="-38.399999" height="460.799983" fill-opacity="0.2"/></g></mask><clipPath id="9e22975088"><rect x="0" width="201" y="0" height="256"/></clipPath><mask id="31af6caa1c"><g filter="url(#79bd4b509a)"><rect x="-181.35" width="2176.2" fill="#000000" y="-38.399999" height="460.799983" fill-opacity="0.2"/></g></mask><clipPath id="2187360527"><rect x="0" width="1003" y="0" height="256"/></clipPath></defs><g clip-path="url(#e2ef57c88e)"><path fill="#ffffff" d="M 0 0.0546875 L 1813.5 0.0546875 L 1813.5 384.054688 L 0 384.054688 Z M 0 0.0546875 " fill-opacity="1" fill-rule="nonzero"/><path fill="#ffffff" d="M 0 0.0546875 L 1813.5 0.0546875 L 1813.5 384.054688 L 0 384.054688 Z M 0 0.0546875 " fill-opacity="1" fill-rule="nonzero"/></g><g mask="url(#f338113e00)"><g transform="matrix(1, 0, 0, 1, 166, 20)"><g clip-path="url(#c69b98274a)"><g fill="#6d6bd1" fill-opacity="1"><g transform="translate(0.109708, 267.149043)"><g><path d="M 223.585938 -212.9375 L 53.234375 -212.9375 C 29.8125 -212.9375 10.648438 -193.773438 10.648438 -170.351562 L 10.648438 -127.761719 C 10.648438 -104.339844 29.8125 -85.175781 53.234375 -85.175781 L 180.996094 -85.175781 L 180.996094 -42.585938 L 10.648438 -42.585938 L 10.648438 0 L 180.996094 0 C 204.417969 0 223.585938 -19.164062 223.585938 -42.585938 L 223.585938 -85.175781 C 223.585938 -108.597656 204.417969 -127.761719 180.996094 -127.761719 L 53.234375 -127.761719 L 53.234375 -170.351562 L 223.585938 -170.351562 Z M 223.585938 -212.9375 "/></g></g></g></g></g></g><g mask="url(#0f06669042)"><g transform="matrix(1, 0, 0, 1, 166, 20)"><g clip-path="url(#4eb11da39e)"><g fill="#6d6bd1" fill-opacity="1"><g transform="translate(0.109708, 267.149043)"><g><path d="M 180.996094 -212.9375 L 10.648438 -212.9375 L 10.648438 0 L 53.234375 0 L 53.234375 -85.175781 L 180.996094 -85.175781 C 204.417969 -85.175781 223.585938 -104.339844 223.585938 -127.761719 L 223.585938 -170.351562 C 223.585938 -193.773438 204.417969 -212.9375 180.996094 -212.9375 Z M 53.234375 -127.761719 L 53.234375 -170.351562 L 180.996094 -170.351562 L 180.996094 -127.761719 Z M 53.234375 -127.761719 "/></g></g></g></g></g></g><g mask="url(#ab290d43c2)"><g transform="matrix(1, 0, 0, 1, 166, 20)"><g clip-path="url(#baedefd1a3)"><g fill="#6d6bd1" fill-opacity="1"><g transform="translate(0.109708, 267.149043)"><g><path d="M 180.996094 -127.761719 L 53.234375 -127.761719 L 53.234375 -212.9375 L 10.648438 -212.9375 L 10.648438 0 L 53.234375 0 L 53.234375 -85.175781 L 180.996094 -85.175781 L 180.996094 0 L 223.585938 0 L 223.585938 -212.9375 L 180.996094 -212.9375 Z M 180.996094 -127.761719 "/></g></g></g></g></g></g><g mask="url(#8ff9b47958)"><g transform="matrix(1, 0, 0, 1, 166, 20)"><g clip-path="url(#17cae84b87)"><g fill="#6d6bd1" fill-opacity="1"><g transform="translate(0.109708, 267.149043)"><g><path d="M 53.234375 -212.9375 C 29.8125 -212.9375 10.648438 -193.773438 10.648438 -170.351562 L 10.648438 0 L 53.234375 0 L 53.234375 -85.175781 L 180.996094 -85.175781 L 180.996094 0 L 223.585938 0 L 223.585938 -170.351562 C 223.585938 -193.773438 204.417969 -212.9375 180.996094 -212.9375 Z M 53.234375 -170.351562 L 180.996094 -170.351562 L 180.996094 -127.761719 L 53.234375 -127.761719 Z M 53.234375 -170.351562 "/></g></g></g></g></g></g><g mask="url(#8578ebdd24)"><g transform="matrix(1, 0, 0, 1, 166, 20)"><g clip-path="url(#331fea44c8)"><g fill="#6d6bd1" fill-opacity="1"><g transform="translate(0.109708, 267.149043)"><g><path d="M 223.585938 -212.9375 L 53.234375 -212.9375 C 29.8125 -212.9375 10.648438 -193.773438 10.648438 -170.351562 L 10.648438 -127.761719 C 10.648438 -104.339844 29.8125 -85.175781 53.234375 -85.175781 L 180.996094 -85.175781 L 180.996094 -42.585938 L 10.648438 -42.585938 L 10.648438 0 L 180.996094 0 C 204.417969 0 223.585938 -19.164062 223.585938 -42.585938 L 223.585938 -85.175781 C 223.585938 -108.597656 204.417969 -127.761719 180.996094 -127.761719 L 53.234375 -127.761719 L 53.234375 -170.351562 L 223.585938 -170.351562 Z M 223.585938 -212.9375 "/></g></g></g></g></g></g><g mask="url(#52f73ceae9)"><g transform="matrix(1, 0, 0, 1, 166, 20)"><g clip-path="url(#44175eda4d)"><g fill="#6d6bd1" fill-opacity="1"><g transform="translate(0.109708, 267.149043)"><g><path d="M 223.585938 -212.9375 L 53.234375 -212.9375 C 29.8125 -212.9375 10.648438 -193.773438 10.648438 -170.351562 L 10.648438 -42.585938 C 10.648438 -19.164062 29.8125 0 53.234375 0 L 223.585938 0 L 223.585938 -42.585938 L 53.234375 -42.585938 L 53.234375 -85.175781 L 223.585938 -85.175781 L 223.585938 -127.761719 L 53.234375 -127.761719 L 53.234375 -170.351562 L 223.585938 -170.351562 Z M 223.585938 -212.9375 "/></g></g></g></g></g></g><g mask="url(#34040330ff)"><g transform="matrix(1, 0, 0, 1, 458, 52)"><g clip-path="url(#65ba68345e)"><g fill="#000000" fill-opacity="1"><g transform="translate(0.320463, 212.373815)"><g><path d="M 177.730469 -169.269531 L 42.316406 -169.269531 C 23.699219 -169.269531 8.464844 -154.035156 8.464844 -135.414062 L 8.464844 -101.5625 C 8.464844 -82.941406 23.699219 -67.707031 42.316406 -67.707031 L 143.878906 -67.707031 L 143.878906 -33.855469 L 8.464844 -33.855469 L 8.464844 0 L 143.878906 0 C 162.496094 0 177.730469 -15.234375 177.730469 -33.855469 L 177.730469 -67.707031 C 177.730469 -86.328125 162.496094 -101.5625 143.878906 -101.5625 L 42.316406 -101.5625 L 42.316406 -135.414062 L 177.730469 -135.414062 Z M 177.730469 -169.269531 "/></g></g></g><g fill="#000000" fill-opacity="1"><g transform="translate(200.480319, 212.373815)"><g><path d="M 143.878906 -169.269531 L 8.464844 -169.269531 L 8.464844 0 L 42.316406 0 L 42.316406 -67.707031 L 143.878906 -67.707031 C 162.496094 -67.707031 177.730469 -82.941406 177.730469 -101.5625 L 177.730469 -135.414062 C 177.730469 -154.035156 162.496094 -169.269531 143.878906 -169.269531 Z M 42.316406 -101.5625 L 42.316406 -135.414062 L 143.878906 -135.414062 L 143.878906 -101.5625 Z M 42.316406 -101.5625 "/></g></g></g></g></g></g><g mask="url(#59b384b4d7)"><g transform="matrix(1, 0, 0, 1, 458, 52)"><g clip-path="url(#fc4f69f64c)"><g fill="#000000" fill-opacity="1"><g transform="translate(0.320463, 212.373815)"><g><path d="M 177.730469 -169.269531 L 42.316406 -169.269531 C 23.699219 -169.269531 8.464844 -154.035156 8.464844 -135.414062 L 8.464844 -101.5625 C 8.464844 -82.941406 23.699219 -67.707031 42.316406 -67.707031 L 143.878906 -67.707031 L 143.878906 -33.855469 L 8.464844 -33.855469 L 8.464844 0 L 143.878906 0 C 162.496094 0 177.730469 -15.234375 177.730469 -33.855469 L 177.730469 -67.707031 C 177.730469 -86.328125 162.496094 -101.5625 143.878906 -101.5625 L 42.316406 -101.5625 L 42.316406 -135.414062 L 177.730469 -135.414062 Z M 177.730469 -169.269531 "/></g></g></g><g fill="#000000" fill-opacity="1"><g transform="translate(200.480319, 212.373815)"><g><path d="M 143.878906 -169.269531 L 8.464844 -169.269531 L 8.464844 0 L 42.316406 0 L 42.316406 -67.707031 L 143.878906 -67.707031 C 162.496094 -67.707031 177.730469 -82.941406 177.730469 -101.5625 L 177.730469 -135.414062 C 177.730469 -154.035156 162.496094 -169.269531 143.878906 -169.269531 Z M 42.316406 -101.5625 L 42.316406 -135.414062 L 143.878906 -135.414062 L 143.878906 -101.5625 Z M 42.316406 -101.5625 "/></g></g></g><g fill="#000000" fill-opacity="1"><g transform="translate(400.640174, 212.373815)"><g><path d="M 143.878906 -101.5625 L 42.316406 -101.5625 L 42.316406 -169.269531 L 8.464844 -169.269531 L 8.464844 0 L 42.316406 0 L 42.316406 -67.707031 L 143.878906 -67.707031 L 143.878906 0 L 177.730469 0 L 177.730469 -169.269531 L 143.878906 -169.269531 Z M 143.878906 -101.5625 "/></g></g></g><g fill="#000000" fill-opacity="1"><g transform="translate(600.800051, 212.373815)"><g><path d="M 42.316406 -169.269531 C 23.699219 -169.269531 8.464844 -154.035156 8.464844 -135.414062 L 8.464844 0 L 42.316406 0 L 42.316406 -67.707031 L 143.878906 -67.707031 L 143.878906 0 L 177.730469 0 L 177.730469 -135.414062 C 177.730469 -154.035156 162.496094 -169.269531 143.878906 -169.269531 Z M 42.316406 -135.414062 L 143.878906 -135.414062 L 143.878906 -101.5625 L 42.316406 -101.5625 Z M 42.316406 -135.414062 "/></g></g></g><g fill="#000000" fill-opacity="1"><g transform="translate(800.959886, 212.373815)"><g><path d="M 177.730469 -169.269531 L 42.316406 -169.269531 C 23.699219 -169.269531 8.464844 -154.035156 8.464844 -135.414062 L 8.464844 -101.5625 C 8.464844 -82.941406 23.699219 -67.707031 42.316406 -67.707031 L 143.878906 -67.707031 L 143.878906 -33.855469 L 8.464844 -33.855469 L 8.464844 0 L 143.878906 0 C 162.496094 0 177.730469 -15.234375 177.730469 -33.855469 L 177.730469 -67.707031 C 177.730469 -86.328125 162.496094 -101.5625 143.878906 -101.5625 L 42.316406 -101.5625 L 42.316406 -135.414062 L 177.730469 -135.414062 Z M 177.730469 -169.269531 "/></g></g></g><g fill="#000000" fill-opacity="1"><g transform="translate(1001.11972, 212.373815)"><g><path d="M 177.730469 -169.269531 L 42.316406 -169.269531 C 23.699219 -169.269531 8.464844 -154.035156 8.464844 -135.414062 L 8.464844 -33.855469 C 8.464844 -15.234375 23.699219 0 42.316406 0 L 177.730469 0 L 177.730469 -33.855469 L 42.316406 -33.855469 L 42.316406 -67.707031 L 177.730469 -67.707031 L 177.730469 -101.5625 L 42.316406 -101.5625 L 42.316406 -135.414062 L 177.730469 -135.414062 Z M 177.730469 -169.269531 "/></g></g></g></g></g></g><g mask="url(#aef6702991)"><g transform="matrix(1, 0, 0, 1, 458, 52)"><g clip-path="url(#59a392e607)"><g fill="#000000" fill-opacity="1"><g transform="translate(0.320463, 212.373815)"><g><path d="M 177.730469 -169.269531 L 42.316406 -169.269531 C 23.699219 -169.269531 8.464844 -154.035156 8.464844 -135.414062 L 8.464844 -101.5625 C 8.464844 -82.941406 23.699219 -67.707031 42.316406 -67.707031 L 143.878906 -67.707031 L 143.878906 -33.855469 L 8.464844 -33.855469 L 8.464844 0 L 143.878906 0 C 162.496094 0 177.730469 -15.234375 177.730469 -33.855469 L 177.730469 -67.707031 C 177.730469 -86.328125 162.496094 -101.5625 143.878906 -101.5625 L 42.316406 -101.5625 L 42.316406 -135.414062 L 177.730469 -135.414062 Z M 177.730469 -169.269531 "/></g></g></g><g fill="#000000" fill-opacity="1"><g transform="translate(200.480319, 212.373815)"><g><path d="M 143.878906 -169.269531 L 8.464844 -169.269531 L 8.464844 0 L 42.316406 0 L 42.316406 -67.707031 L 143.878906 -67.707031 C 162.496094 -67.707031 177.730469 -82.941406 177.730469 -101.5625 L 177.730469 -135.414062 C 177.730469 -154.035156 162.496094 -169.269531 143.878906 -169.269531 Z M 42.316406 -101.5625 L 42.316406 -135.414062 L 143.878906 -135.414062 L 143.878906 -101.5625 Z M 42.316406 -101.5625 "/></g></g></g><g fill="#000000" fill-opacity="1"><g transform="translate(400.640174, 212.373815)"><g><path d="M 143.878906 -101.5625 L 42.316406 -101.5625 L 42.316406 -169.269531 L 8.464844 -169.269531 L 8.464844 0 L 42.316406 0 L 42.316406 -67.707031 L 143.878906 -67.707031 L 143.878906 0 L 177.730469 0 L 177.730469 -169.269531 L 143.878906 -169.269531 Z M 143.878906 -101.5625 "/></g></g></g><g fill="#000000" fill-opacity="1"><g transform="translate(600.800051, 212.373815)"><g><path d="M 42.316406 -169.269531 C 23.699219 -169.269531 8.464844 -154.035156 8.464844 -135.414062 L 8.464844 0 L 42.316406 0 L 42.316406 -67.707031 L 143.878906 -67.707031 L 143.878906 0 L 177.730469 0 L 177.730469 -135.414062 C 177.730469 -154.035156 162.496094 -169.269531 143.878906 -169.269531 Z M 42.316406 -135.414062 L 143.878906 -135.414062 L 143.878906 -101.5625 L 42.316406 -101.5625 Z M 42.316406 -135.414062 "/></g></g></g></g></g></g><g mask="url(#461274c749)"><g transform="matrix(1, 0, 0, 1, 458, 52)"><g clip-path="url(#e6bf2d7a0e)"><g fill="#000000" fill-opacity="1"><g transform="translate(0.320463, 212.373815)"><g><path d="M 177.730469 -169.269531 L 42.316406 -169.269531 C 23.699219 -169.269531 8.464844 -154.035156 8.464844 -135.414062 L 8.464844 -101.5625 C 8.464844 -82.941406 23.699219 -67.707031 42.316406 -67.707031 L 143.878906 -67.707031 L 143.878906 -33.855469 L 8.464844 -33.855469 L 8.464844 0 L 143.878906 0 C 162.496094 0 177.730469 -15.234375 177.730469 -33.855469 L 177.730469 -67.707031 C 177.730469 -86.328125 162.496094 -101.5625 143.878906 -101.5625 L 42.316406 -101.5625 L 42.316406 -135.414062 L 177.730469 -135.414062 Z M 177.730469 -169.269531 "/></g></g></g><g fill="#000000" fill-opacity="1"><g transform="translate(200.480319, 212.373815)"><g><path d="M 143.878906 -169.269531 L 8.464844 -169.269531 L 8.464844 0 L 42.316406 0 L 42.316406 -67.707031 L 143.878906 -67.707031 C 162.496094 -67.707031 177.730469 -82.941406 177.730469 -101.5625 L 177.730469 -135.414062 C 177.730469 -154.035156 162.496094 -169.269531 143.878906 -169.269531 Z M 42.316406 -101.5625 L 42.316406 -135.414062 L 143.878906 -135.414062 L 143.878906 -101.5625 Z M 42.316406 -101.5625 "/></g></g></g><g fill="#000000" fill-opacity="1"><g transform="translate(400.640174, 212.373815)"><g><path d="M 143.878906 -101.5625 L 42.316406 -101.5625 L 42.316406 -169.269531 L 8.464844 -169.269531 L 8.464844 0 L 42.316406 0 L 42.316406 -67.707031 L 143.878906 -67.707031 L 143.878906 0 L 177.730469 0 L 177.730469 -169.269531 L 143.878906 -169.269531 Z M 143.878906 -101.5625 "/></g></g></g></g></g></g><g mask="url(#1a37001fec)"><g transform="matrix(1, 0, 0, 1, 458, 52)"><g clip-path="url(#9e22975088)"><g fill="#000000" fill-opacity="1"><g transform="translate(0.320463, 212.373815)"><g><path d="M 177.730469 -169.269531 L 42.316406 -169.269531 C 23.699219 -169.269531 8.464844 -154.035156 8.464844 -135.414062 L 8.464844 -101.5625 C 8.464844 -82.941406 23.699219 -67.707031 42.316406 -67.707031 L 143.878906 -67.707031 L 143.878906 -33.855469 L 8.464844 -33.855469 L 8.464844 0 L 143.878906 0 C 162.496094 0 177.730469 -15.234375 177.730469 -33.855469 L 177.730469 -67.707031 C 177.730469 -86.328125 162.496094 -101.5625 143.878906 -101.5625 L 42.316406 -101.5625 L 42.316406 -135.414062 L 177.730469 -135.414062 Z M 177.730469 -169.269531 "/></g></g></g></g></g></g><g mask="url(#31af6caa1c)"><g transform="matrix(1, 0, 0, 1, 458, 52)"><g clip-path="url(#2187360527)"><g fill="#000000" fill-opacity="1"><g transform="translate(0.320463, 212.373815)"><g><path d="M 177.730469 -169.269531 L 42.316406 -169.269531 C 23.699219 -169.269531 8.464844 -154.035156 8.464844 -135.414062 L 8.464844 -101.5625 C 8.464844 -82.941406 23.699219 -67.707031 42.316406 -67.707031 L 143.878906 -67.707031 L 143.878906 -33.855469 L 8.464844 -33.855469 L 8.464844 0 L 143.878906 0 C 162.496094 0 177.730469 -15.234375 177.730469 -33.855469 L 177.730469 -67.707031 C 177.730469 -86.328125 162.496094 -101.5625 143.878906 -101.5625 L 42.316406 -101.5625 L 42.316406 -135.414062 L 177.730469 -135.414062 Z M 177.730469 -169.269531 "/></g></g></g><g fill="#000000" fill-opacity="1"><g transform="translate(200.480319, 212.373815)"><g><path d="M 143.878906 -169.269531 L 8.464844 -169.269531 L 8.464844 0 L 42.316406 0 L 42.316406 -67.707031 L 143.878906 -67.707031 C 162.496094 -67.707031 177.730469 -82.941406 177.730469 -101.5625 L 177.730469 -135.414062 C 177.730469 -154.035156 162.496094 -169.269531 143.878906 -169.269531 Z M 42.316406 -101.5625 L 42.316406 -135.414062 L 143.878906 -135.414062 L 143.878906 -101.5625 Z M 42.316406 -101.5625 "/></g></g></g><g fill="#000000" fill-opacity="1"><g transform="translate(400.640174, 212.373815)"><g><path d="M 143.878906 -101.5625 L 42.316406 -101.5625 L 42.316406 -169.269531 L 8.464844 -169.269531 L 8.464844 0 L 42.316406 0 L 42.316406 -67.707031 L 143.878906 -67.707031 L 143.878906 0 L 177.730469 0 L 177.730469 -169.269531 L 143.878906 -169.269531 Z M 143.878906 -101.5625 "/></g></g></g><g fill="#000000" fill-opacity="1"><g transform="translate(600.800051, 212.373815)"><g><path d="M 42.316406 -169.269531 C 23.699219 -169.269531 8.464844 -154.035156 8.464844 -135.414062 L 8.464844 0 L 42.316406 0 L 42.316406 -67.707031 L 143.878906 -67.707031 L 143.878906 0 L 177.730469 0 L 177.730469 -135.414062 C 177.730469 -154.035156 162.496094 -169.269531 143.878906 -169.269531 Z M 42.316406 -135.414062 L 143.878906 -135.414062 L 143.878906 -101.5625 L 42.316406 -101.5625 Z M 42.316406 -135.414062 "/></g></g></g><g fill="#000000" fill-opacity="1"><g transform="translate(800.959886, 212.373815)"><g><path d="M 177.730469 -169.269531 L 42.316406 -169.269531 C 23.699219 -169.269531 8.464844 -154.035156 8.464844 -135.414062 L 8.464844 -101.5625 C 8.464844 -82.941406 23.699219 -67.707031 42.316406 -67.707031 L 143.878906 -67.707031 L 143.878906 -33.855469 L 8.464844 -33.855469 L 8.464844 0 L 143.878906 0 C 162.496094 0 177.730469 -15.234375 177.730469 -33.855469 L 177.730469 -67.707031 C 177.730469 -86.328125 162.496094 -101.5625 143.878906 -101.5625 L 42.316406 -101.5625 L 42.316406 -135.414062 L 177.730469 -135.414062 Z M 177.730469 -169.269531 "/></g></g></g></g></g></g></svg>