<svg xmlns="http://www.w3.org/2000/svg" xmlns:xlink="http://www.w3.org/1999/xlink" width="2418" zoomAndPan="magnify" viewBox="0 0 1813.5 383.999986" height="512" preserveAspectRatio="xMidYMid meet" version="1.0"><defs><g/><clipPath id="72ce1a8a3e"><path d="M 0 0.0546875 L 1813 0.0546875 L 1813 383.945312 L 0 383.945312 Z M 0 0.0546875 " clip-rule="nonzero"/></clipPath><clipPath id="42fca4f1fc"><path d="M 1264.292969 249.722656 L 1307.550781 249.722656 L 1307.550781 306.976562 L 1264.292969 306.976562 Z M 1264.292969 249.722656 " clip-rule="nonzero"/></clipPath><clipPath id="3715733a64"><path d="M 1262.585938 160.554688 L 1309.660156 160.554688 L 1309.660156 207.628906 L 1262.585938 207.628906 Z M 1262.585938 160.554688 " clip-rule="nonzero"/></clipPath><clipPath id="8087471cd0"><path d="M 605.582031 245.53125 L 655.203125 245.53125 L 655.203125 295.148438 L 605.582031 295.148438 Z M 605.582031 245.53125 " clip-rule="nonzero"/></clipPath></defs><g clip-path="url(#72ce1a8a3e)"><path fill="#ffffff" d="M 0 0.0546875 L 1813.5 0.0546875 L 1813.5 384.054688 L 0 384.054688 Z M 0 0.0546875 " fill-opacity="1" fill-rule="nonzero"/><path fill="#ffffff" d="M 0 0.0546875 L 1813.5 0.0546875 L 1813.5 384.054688 L 0 384.054688 Z M 0 0.0546875 " fill-opacity="1" fill-rule="nonzero"/></g><g fill="#000000" fill-opacity="1"><g transform="translate(433.885603, 293.349826)"><g><path d="M 67.796875 -206.90625 L 67.796875 -34.25 L 160.765625 -34.25 L 160.765625 0 L 26.890625 0 L 26.890625 -206.90625 Z M 67.796875 -206.90625 "/></g></g></g><g fill="#000000" fill-opacity="1"><g transform="translate(591.884399, 293.349826)"><g/></g></g><g fill="#000000" fill-opacity="1"><g transform="translate(650.67541, 293.349826)"><g><path d="M 154.265625 -69.203125 L 53.921875 -69.203125 C 55.054688 -55.617188 58.925781 -45.734375 65.53125 -39.546875 C 72.132812 -33.367188 81.144531 -30.28125 92.5625 -30.28125 C 101.519531 -30.28125 108.78125 -31.953125 114.34375 -35.296875 C 119.914062 -38.648438 124.398438 -43.726562 127.796875 -50.53125 L 130.765625 -50.53125 L 156.8125 -33.828125 C 151.71875 -22.878906 144.023438 -14.007812 133.734375 -7.21875 C 123.453125 -0.425781 109.726562 2.96875 92.5625 2.96875 C 76.425781 2.96875 62.484375 -0.09375 50.734375 -6.21875 C 38.984375 -12.351562 29.925781 -21.484375 23.5625 -33.609375 C 17.195312 -45.734375 14.015625 -60.523438 14.015625 -77.984375 C 14.015625 -95.722656 17.363281 -110.675781 24.0625 -122.84375 C 30.757812 -135.007812 39.816406 -144.085938 51.234375 -150.078125 C 62.648438 -156.078125 75.484375 -159.078125 89.734375 -159.078125 C 111.804688 -159.078125 128.710938 -153.222656 140.453125 -141.515625 C 152.203125 -129.816406 158.078125 -112.648438 158.078125 -90.015625 C 158.078125 -81.804688 157.796875 -75.4375 157.234375 -70.90625 Z M 120.578125 -94.53125 C 120.203125 -106.425781 117.441406 -115.082031 112.296875 -120.5 C 107.160156 -125.925781 99.640625 -128.640625 89.734375 -128.640625 C 69.910156 -128.640625 58.253906 -117.269531 54.765625 -94.53125 Z M 120.578125 -94.53125 "/></g></g></g><g fill="#000000" fill-opacity="1"><g transform="translate(810.797044, 293.349826)"><g><path d="M 60.859375 2.96875 C 50.859375 2.96875 42.175781 1.128906 34.8125 -2.546875 C 27.457031 -6.222656 21.796875 -11.625 17.828125 -18.75 C 13.867188 -25.875 11.890625 -34.4375 11.890625 -44.4375 C 11.890625 -53.6875 13.867188 -61.445312 17.828125 -67.71875 C 21.796875 -73.988281 27.929688 -79.128906 36.234375 -83.140625 C 44.535156 -87.148438 55.382812 -90.242188 68.78125 -92.421875 C 78.125 -93.929688 85.222656 -95.582031 90.078125 -97.375 C 94.941406 -99.164062 98.222656 -101.191406 99.921875 -103.453125 C 101.617188 -105.722656 102.46875 -108.601562 102.46875 -112.09375 C 102.46875 -117.09375 100.71875 -120.910156 97.21875 -123.546875 C 93.726562 -126.191406 87.925781 -127.515625 79.8125 -127.515625 C 71.132812 -127.515625 62.878906 -125.578125 55.046875 -121.703125 C 47.222656 -117.835938 40.429688 -112.742188 34.671875 -106.421875 L 31.84375 -106.421875 L 15.421875 -131.1875 C 23.347656 -139.96875 33.019531 -146.8125 44.4375 -151.71875 C 55.851562 -156.625 68.304688 -159.078125 81.796875 -159.078125 C 102.460938 -159.078125 117.414062 -154.6875 126.65625 -145.90625 C 135.90625 -137.132812 140.53125 -124.679688 140.53125 -108.546875 L 140.53125 -40.765625 C 140.53125 -33.773438 143.597656 -30.28125 149.734375 -30.28125 C 152.085938 -30.28125 154.398438 -30.707031 156.671875 -31.5625 L 158.65625 -31 L 161.484375 -3.671875 C 159.304688 -2.265625 156.285156 -1.113281 152.421875 -0.21875 C 148.554688 0.675781 144.3125 1.125 139.6875 1.125 C 130.34375 1.125 123.050781 -0.664062 117.8125 -4.25 C 112.582031 -7.832031 108.832031 -13.445312 106.5625 -21.09375 L 103.59375 -21.375 C 95.957031 -5.144531 81.710938 2.96875 60.859375 2.96875 Z M 73.3125 -26.328125 C 82.363281 -26.328125 89.601562 -29.367188 95.03125 -35.453125 C 100.457031 -41.535156 103.171875 -50.003906 103.171875 -60.859375 L 103.171875 -76.703125 L 100.484375 -77.265625 C 98.117188 -75.378906 95.023438 -73.800781 91.203125 -72.53125 C 87.390625 -71.257812 81.894531 -70.007812 74.71875 -68.78125 C 66.226562 -67.363281 60.117188 -64.929688 56.390625 -61.484375 C 52.671875 -58.046875 50.8125 -53.164062 50.8125 -46.84375 C 50.8125 -40.144531 52.789062 -35.050781 56.75 -31.5625 C 60.71875 -28.070312 66.238281 -26.328125 73.3125 -26.328125 Z M 73.3125 -26.328125 "/></g></g></g><g fill="#000000" fill-opacity="1"><g transform="translate(965.823861, 293.349826)"><g><path d="M 22.5 0 L 22.5 -156.109375 L 60.578125 -156.109375 L 60.578125 -132.890625 L 63.546875 -132.328125 C 67.316406 -141.003906 72.269531 -147.367188 78.40625 -151.421875 C 84.539062 -155.484375 91.992188 -157.515625 100.765625 -157.515625 C 109.628906 -157.515625 116.375 -156.003906 121 -152.984375 L 114.359375 -119.171875 L 111.375 -118.59375 C 108.832031 -119.632812 106.378906 -120.390625 104.015625 -120.859375 C 101.660156 -121.328125 98.785156 -121.5625 95.390625 -121.5625 C 84.441406 -121.5625 76.085938 -117.71875 70.328125 -110.03125 C 64.578125 -102.34375 61.703125 -90.007812 61.703125 -73.03125 L 61.703125 0 Z M 22.5 0 "/></g></g></g><g fill="#000000" fill-opacity="1"><g transform="translate(1078.676758, 293.349826)"><g><path d="M 22.5 0 L 22.5 -156.109375 L 60.140625 -156.109375 L 60.140625 -133.171875 L 63.125 -132.46875 C 72.84375 -150.207031 88.597656 -159.078125 110.390625 -159.078125 C 128.410156 -159.078125 141.640625 -154.171875 150.078125 -144.359375 C 158.523438 -134.546875 162.75 -120.25 162.75 -101.46875 L 162.75 0 L 123.546875 0 L 123.546875 -96.65625 C 123.546875 -107.039062 121.46875 -114.519531 117.3125 -119.09375 C 113.164062 -123.664062 106.519531 -125.953125 97.375 -125.953125 C 86.144531 -125.953125 77.390625 -122.316406 71.109375 -115.046875 C 64.835938 -107.785156 61.703125 -96.375 61.703125 -80.8125 L 61.703125 0 Z M 22.5 0 "/></g></g></g><g fill="#000000" fill-opacity="1"><g transform="translate(1251.960029, 293.349826)"><g/></g></g><g fill="#000000" fill-opacity="1"><g transform="translate(1310.75105, 293.349826)"><g><path d="M 154.265625 -69.203125 L 53.921875 -69.203125 C 55.054688 -55.617188 58.925781 -45.734375 65.53125 -39.546875 C 72.132812 -33.367188 81.144531 -30.28125 92.5625 -30.28125 C 101.519531 -30.28125 108.78125 -31.953125 114.34375 -35.296875 C 119.914062 -38.648438 124.398438 -43.726562 127.796875 -50.53125 L 130.765625 -50.53125 L 156.8125 -33.828125 C 151.71875 -22.878906 144.023438 -14.007812 133.734375 -7.21875 C 123.453125 -0.425781 109.726562 2.96875 92.5625 2.96875 C 76.425781 2.96875 62.484375 -0.09375 50.734375 -6.21875 C 38.984375 -12.351562 29.925781 -21.484375 23.5625 -33.609375 C 17.195312 -45.734375 14.015625 -60.523438 14.015625 -77.984375 C 14.015625 -95.722656 17.363281 -110.675781 24.0625 -122.84375 C 30.757812 -135.007812 39.816406 -144.085938 51.234375 -150.078125 C 62.648438 -156.078125 75.484375 -159.078125 89.734375 -159.078125 C 111.804688 -159.078125 128.710938 -153.222656 140.453125 -141.515625 C 152.203125 -129.816406 158.078125 -112.648438 158.078125 -90.015625 C 158.078125 -81.804688 157.796875 -75.4375 157.234375 -70.90625 Z M 120.578125 -94.53125 C 120.203125 -106.425781 117.441406 -115.082031 112.296875 -120.5 C 107.160156 -125.925781 99.640625 -128.640625 89.734375 -128.640625 C 69.910156 -128.640625 58.253906 -117.269531 54.765625 -94.53125 Z M 120.578125 -94.53125 "/></g></g></g><g fill="#000000" fill-opacity="1"><g transform="translate(1470.872705, 293.349826)"><g><path d="M 77.125 2.96875 C 64.769531 2.96875 53.847656 -0.0234375 44.359375 -6.015625 C 34.878906 -12.003906 27.453125 -21.0625 22.078125 -33.1875 C 16.703125 -45.3125 14.015625 -60.242188 14.015625 -77.984375 C 14.015625 -95.816406 16.769531 -110.789062 22.28125 -122.90625 C 27.800781 -135.03125 35.441406 -144.085938 45.203125 -150.078125 C 54.972656 -156.078125 66.273438 -159.078125 79.109375 -159.078125 C 88.828125 -159.078125 97.25 -157.398438 104.375 -154.046875 C 111.5 -150.703125 117.515625 -145.488281 122.421875 -138.40625 L 125.390625 -139.125 L 125.390625 -218.796875 L 164.59375 -218.796875 L 164.59375 0 L 125.390625 0 L 125.390625 -20.234375 L 122.421875 -20.796875 C 118.078125 -13.441406 112.128906 -7.640625 104.578125 -3.390625 C 97.035156 0.847656 87.882812 2.96875 77.125 2.96875 Z M 89.875 -30.28125 C 100.90625 -30.28125 109.628906 -34.21875 116.046875 -42.09375 C 122.460938 -49.976562 125.671875 -61.941406 125.671875 -77.984375 C 125.671875 -94.023438 122.460938 -106.003906 116.046875 -113.921875 C 109.628906 -121.847656 100.90625 -125.8125 89.875 -125.8125 C 78.363281 -125.8125 69.5625 -121.96875 63.46875 -114.28125 C 57.382812 -106.59375 54.34375 -94.492188 54.34375 -77.984375 C 54.34375 -61.566406 57.382812 -49.507812 63.46875 -41.8125 C 69.5625 -34.125 78.363281 -30.28125 89.875 -30.28125 Z M 89.875 -30.28125 "/></g></g></g><g clip-path="url(#42fca4f1fc)"><path fill="#cb3137" d="M 1285.921875 249.722656 C 1285.214844 249.722656 1284.511719 249.757812 1283.808594 249.824219 C 1283.109375 249.894531 1282.410156 249.996094 1281.71875 250.132812 C 1281.027344 250.269531 1280.34375 250.441406 1279.667969 250.644531 C 1278.992188 250.847656 1278.328125 251.082031 1277.675781 251.351562 C 1277.027344 251.617188 1276.390625 251.917969 1275.765625 252.246094 C 1275.144531 252.578125 1274.539062 252.9375 1273.953125 253.328125 C 1273.367188 253.714844 1272.800781 254.132812 1272.253906 254.578125 C 1271.710938 255.019531 1271.1875 255.488281 1270.6875 255.984375 C 1270.191406 256.480469 1269.71875 257 1269.269531 257.539062 C 1268.820312 258.082031 1268.402344 258.644531 1268.011719 259.226562 C 1267.617188 259.808594 1267.253906 260.40625 1266.921875 261.023438 C 1266.589844 261.644531 1266.289062 262.273438 1266.019531 262.921875 C 1265.75 263.570312 1265.511719 264.226562 1265.308594 264.898438 C 1265.101562 265.566406 1264.929688 266.246094 1264.792969 266.933594 C 1264.65625 267.621094 1264.550781 268.3125 1264.484375 269.007812 C 1264.414062 269.703125 1264.378906 270.402344 1264.378906 271.105469 C 1264.378906 271.804688 1264.414062 272.503906 1264.484375 273.199219 C 1264.550781 273.894531 1264.65625 274.589844 1264.792969 275.273438 C 1264.929688 275.960938 1265.101562 276.640625 1265.308594 277.308594 C 1265.511719 277.980469 1265.75 278.640625 1266.019531 279.285156 C 1266.289062 279.933594 1266.589844 280.566406 1266.921875 281.183594 C 1267.253906 281.800781 1267.617188 282.398438 1268.011719 282.980469 C 1268.402344 283.566406 1268.820312 284.125 1269.269531 284.667969 C 1269.71875 285.210938 1270.191406 285.726562 1270.6875 286.222656 C 1271.1875 286.71875 1271.710938 287.1875 1272.253906 287.632812 C 1272.800781 288.074219 1273.367188 288.492188 1273.953125 288.882812 C 1274.539062 289.269531 1275.144531 289.628906 1275.765625 289.960938 C 1276.390625 290.289062 1277.027344 290.589844 1277.675781 290.855469 C 1278.328125 291.125 1278.992188 291.359375 1279.667969 291.5625 C 1280.34375 291.765625 1281.027344 291.9375 1281.71875 292.074219 C 1282.410156 292.210938 1283.109375 292.3125 1283.808594 292.382812 C 1284.511719 292.449219 1285.214844 292.484375 1285.921875 292.484375 C 1286.769531 292.476562 1287.613281 292.417969 1288.453125 292.308594 C 1286.972656 298.839844 1283.976562 302.976562 1283.96875 302.988281 C 1283.800781 303.21875 1283.683594 303.472656 1283.609375 303.746094 C 1283.535156 304.019531 1283.511719 304.296875 1283.535156 304.578125 C 1283.5625 304.863281 1283.636719 305.128906 1283.761719 305.386719 C 1283.882812 305.640625 1284.046875 305.867188 1284.25 306.066406 C 1284.457031 306.261719 1284.6875 306.417969 1284.949219 306.535156 C 1285.210938 306.648438 1285.480469 306.714844 1285.765625 306.734375 C 1286.050781 306.753906 1286.332031 306.722656 1286.605469 306.640625 C 1286.878906 306.558594 1287.128906 306.433594 1287.355469 306.265625 C 1287.355469 306.265625 1305.886719 292.777344 1307.324219 273.441406 C 1307.414062 272.664062 1307.460938 271.886719 1307.460938 271.105469 C 1307.464844 271.023438 1307.460938 270.945312 1307.453125 270.867188 C 1307.445312 270.171875 1307.402344 269.480469 1307.328125 268.789062 C 1307.253906 268.097656 1307.144531 267.410156 1307 266.730469 C 1306.855469 266.050781 1306.679688 265.378906 1306.46875 264.714844 C 1306.261719 264.050781 1306.019531 263.398438 1305.746094 262.761719 C 1305.472656 262.121094 1305.167969 261.496094 1304.835938 260.882812 C 1304.5 260.273438 1304.136719 259.679688 1303.742188 259.105469 C 1303.351562 258.53125 1302.929688 257.976562 1302.480469 257.441406 C 1302.035156 256.90625 1301.5625 256.394531 1301.0625 255.90625 C 1300.566406 255.414062 1300.046875 254.953125 1299.5 254.511719 C 1298.957031 254.074219 1298.394531 253.664062 1297.8125 253.28125 C 1297.226562 252.894531 1296.625 252.542969 1296.007812 252.214844 C 1295.386719 251.890625 1294.753906 251.59375 1294.105469 251.332031 C 1293.460938 251.066406 1292.800781 250.832031 1292.128906 250.632812 C 1291.460938 250.433594 1290.78125 250.265625 1290.09375 250.128906 C 1289.40625 249.996094 1288.714844 249.894531 1288.015625 249.824219 C 1287.320312 249.757812 1286.621094 249.722656 1285.921875 249.722656 Z M 1285.921875 249.722656 " fill-opacity="1" fill-rule="nonzero"/></g><g clip-path="url(#3715733a64)"><path fill="#cb3137" d="M 1309.65625 184.085938 C 1309.65625 197.09375 1299.121094 207.628906 1286.125 207.628906 C 1278.84375 207.628906 1272.34375 204.324219 1268.027344 199.132812 C 1264.800781 195.253906 1262.800781 190.324219 1262.613281 184.9375 C 1262.601562 184.660156 1262.59375 184.367188 1262.59375 184.085938 C 1262.59375 171.089844 1273.128906 160.554688 1286.125 160.554688 C 1288.796875 160.554688 1291.359375 160.996094 1293.75 161.820312 C 1298.710938 163.515625 1302.917969 166.820312 1305.761719 171.121094 C 1308.21875 174.835938 1309.65625 179.296875 1309.65625 184.085938 " fill-opacity="1" fill-rule="nonzero"/></g><g clip-path="url(#8087471cd0)"><path fill="#004898" d="M 655.195312 270.335938 C 655.195312 284.042969 644.09375 295.148438 630.394531 295.148438 C 622.71875 295.148438 615.867188 291.667969 611.316406 286.195312 C 607.917969 282.109375 605.808594 276.910156 605.609375 271.234375 C 605.597656 270.941406 605.589844 270.632812 605.589844 270.335938 C 605.589844 256.636719 616.695312 245.53125 630.394531 245.53125 C 633.210938 245.53125 635.910156 245.996094 638.429688 246.863281 C 643.660156 248.652344 648.09375 252.136719 651.089844 256.667969 C 653.683594 260.585938 655.195312 265.285156 655.195312 270.335938 " fill-opacity="1" fill-rule="nonzero"/></g><path stroke-linecap="round" transform="matrix(-0.997744, -0.000000000000000122, 0.000000000000000122, -1.000234, 362.913841, 293.14229)" fill="none" stroke-linejoin="miter" d="M 20.49916 20.500769 L 148.929587 20.500769 " stroke="#000000" stroke-width="41" stroke-opacity="1" stroke-miterlimit="4"/><path stroke-linecap="round" transform="matrix(-0.997744, -0.000000000000000122, 0.000000000000000122, -1.000234, 362.913841, 128.003375)" fill="none" stroke-linejoin="miter" d="M 20.49916 20.498574 L 148.929587 20.498574 " stroke="#000000" stroke-width="41" stroke-opacity="1" stroke-miterlimit="4"/><path stroke-linecap="round" transform="matrix(-0.997744, -0.000000000000000122, 0.000000000000000122, -1.000234, 362.913841, 210.336998)" fill="none" stroke-linejoin="miter" d="M 20.49916 20.500165 L 148.929587 20.500165 " stroke="#000000" stroke-width="41" stroke-opacity="1" stroke-miterlimit="4"/><path stroke-linecap="round" transform="matrix(-1.000529, -0.000000000000000123, 0.000000000000000122, -1.000234, 384.179854, 169.410356)" fill="none" stroke-linejoin="miter" d="M 20.501037 20.499304 L 85.474467 20.499304 " stroke="#cb3137" stroke-width="41" stroke-opacity="1" stroke-miterlimit="4"/><path stroke-linecap="round" transform="matrix(-1.000234, -0.000000000000000122, 0.000000000000000122, -1.000234, 278.173644, 251.744096)" fill="none" stroke-linejoin="miter" d="M 20.500873 20.501013 L 80.514161 20.501013 " stroke="#004898" stroke-width="41" stroke-opacity="1" stroke-miterlimit="4"/></svg>