<svg xmlns="http://www.w3.org/2000/svg" xmlns:xlink="http://www.w3.org/1999/xlink" width="2418" zoomAndPan="magnify" viewBox="0 0 1813.5 383.999986" height="512" preserveAspectRatio="xMidYMid meet" version="1.0"><defs><filter x="0%" y="0%" width="100%" height="100%" id="1911c12be8"><feColorMatrix values="0 0 0 0 1 0 0 0 0 1 0 0 0 0 1 0 0 0 1 0" color-interpolation-filters="sRGB"/></filter><g/><clipPath id="816e268363"><path d="M 0 0.0546875 L 1813 0.0546875 L 1813 383.945312 L 0 383.945312 Z M 0 0.0546875 " clip-rule="nonzero"/></clipPath><clipPath id="5f184b77fb"><path d="M 317 0.0546875 L 1238 0.0546875 L 1238 383.945312 L 317 383.945312 Z M 317 0.0546875 " clip-rule="nonzero"/></clipPath><clipPath id="83aeb9a078"><path d="M 1033 0.0546875 L 1560 0.0546875 L 1560 383.945312 L 1033 383.945312 Z M 1033 0.0546875 " clip-rule="nonzero"/></clipPath><mask id="f7e48ad9bd"><g filter="url(#1911c12be8)"><rect x="-181.35" width="2176.2" fill="#000000" y="-38.399999" height="460.799983" fill-opacity="0.498"/></g></mask><clipPath id="db14c56eec"><path d="M 0.15625 0.0546875 L 526.570312 0.0546875 L 526.570312 383.945312 L 0.15625 383.945312 Z M 0.15625 0.0546875 " clip-rule="nonzero"/></clipPath><clipPath id="64bdf67e39"><rect x="0" width="527" y="0" height="384"/></clipPath><clipPath id="5eef51fb38"><path d="M 0 0.0546875 L 809 0.0546875 L 809 383.945312 L 0 383.945312 Z M 0 0.0546875 " clip-rule="nonzero"/></clipPath><clipPath id="03ab806886"><path d="M 205 0.0546875 L 811 0.0546875 L 811 383.945312 L 205 383.945312 Z M 205 0.0546875 " clip-rule="nonzero"/></clipPath><mask id="b86966445d"><g filter="url(#1911c12be8)"><rect x="-181.35" width="2176.2" fill="#000000" y="-38.399999" height="460.799983" fill-opacity="0.498"/></g></mask><clipPath id="4edc8e266a"><path d="M 0.625 0.0546875 L 605.976562 0.0546875 L 605.976562 383.945312 L 0.625 383.945312 Z M 0.625 0.0546875 " clip-rule="nonzero"/></clipPath><clipPath id="53a10194cf"><rect x="0" width="606" y="0" height="384"/></clipPath></defs><g clip-path="url(#816e268363)"><path fill="#ffffff" d="M 0 0.0546875 L 1813.5 0.0546875 L 1813.5 384.054688 L 0 384.054688 Z M 0 0.0546875 " fill-opacity="1" fill-rule="nonzero"/><path fill="#ffffff" d="M 0 0.0546875 L 1813.5 0.0546875 L 1813.5 384.054688 L 0 384.054688 Z M 0 0.0546875 " fill-opacity="1" fill-rule="nonzero"/></g><g fill="#5e17eb" fill-opacity="0.302"><g transform="translate(689.075699, 351.563205)"><g/></g></g><g fill="#5e17eb" fill-opacity="0.302"><g transform="translate(811.941646, 351.563205)"><g/></g></g><g fill="#5e17eb" fill-opacity="0.502"><g transform="translate(676.873575, 339.361046)"><g/></g></g><g fill="#5e17eb" fill-opacity="0.502"><g transform="translate(799.739523, 339.361046)"><g/></g></g><g fill="#5e17eb" fill-opacity="1"><g transform="translate(664.67138, 327.158884)"><g/></g></g><g fill="#5e17eb" fill-opacity="1"><g transform="translate(787.537328, 327.158884)"><g/></g></g><g fill="#5e17eb" fill-opacity="0.302"><g transform="translate(934.78412, 351.563205)"><g><path d="M 231.925781 -176.707031 C 231.925781 -201.003906 212.046875 -220.882812 187.75 -220.882812 L 11.042969 -220.882812 L 11.042969 0 L 55.21875 0 L 55.21875 -88.351562 L 81.175781 -88.351562 L 162.902344 -6.625 C 167.320312 -2.207031 172.839844 0 178.914062 0 L 231.925781 0 L 231.925781 -44.175781 L 187.75 -44.175781 L 143.574219 -88.351562 L 187.75 -88.351562 C 212.046875 -88.351562 231.925781 -108.234375 231.925781 -132.53125 Z M 187.75 -176.707031 L 187.75 -132.53125 L 55.21875 -132.53125 L 55.21875 -176.707031 Z M 187.75 -176.707031 "/></g></g></g><g fill="#5e17eb" fill-opacity="0.502"><g transform="translate(922.581997, 339.361046)"><g><path d="M 231.925781 -176.707031 C 231.925781 -201.003906 212.046875 -220.882812 187.75 -220.882812 L 11.042969 -220.882812 L 11.042969 0 L 55.21875 0 L 55.21875 -88.351562 L 81.175781 -88.351562 L 162.902344 -6.625 C 167.320312 -2.207031 172.839844 0 178.914062 0 L 231.925781 0 L 231.925781 -44.175781 L 187.75 -44.175781 L 143.574219 -88.351562 L 187.75 -88.351562 C 212.046875 -88.351562 231.925781 -108.234375 231.925781 -132.53125 Z M 187.75 -176.707031 L 187.75 -132.53125 L 55.21875 -132.53125 L 55.21875 -176.707031 Z M 187.75 -176.707031 "/></g></g></g><g fill="#5e17eb" fill-opacity="1"><g transform="translate(910.379802, 327.158884)"><g><path d="M 231.925781 -176.707031 C 231.925781 -201.003906 212.046875 -220.882812 187.75 -220.882812 L 11.042969 -220.882812 L 11.042969 0 L 55.21875 0 L 55.21875 -88.351562 L 81.175781 -88.351562 L 162.902344 -6.625 C 167.320312 -2.207031 172.839844 0 178.914062 0 L 231.925781 0 L 231.925781 -44.175781 L 187.75 -44.175781 L 143.574219 -88.351562 L 187.75 -88.351562 C 212.046875 -88.351562 231.925781 -108.234375 231.925781 -132.53125 Z M 187.75 -176.707031 L 187.75 -132.53125 L 55.21875 -132.53125 L 55.21875 -176.707031 Z M 187.75 -176.707031 "/></g></g></g><g fill="#5e17eb" fill-opacity="0.302"><g transform="translate(1179.11988, 351.563205)"><g/></g></g><g fill="#5e17eb" fill-opacity="0.302"><g transform="translate(1301.985827, 351.563205)"><g/></g></g><g fill="#5e17eb" fill-opacity="0.502"><g transform="translate(1166.917756, 339.361046)"><g/></g></g><g fill="#5e17eb" fill-opacity="0.502"><g transform="translate(1289.783704, 339.361046)"><g/></g></g><g fill="#5e17eb" fill-opacity="1"><g transform="translate(1154.715561, 327.158884)"><g/></g></g><g fill="#5e17eb" fill-opacity="1"><g transform="translate(1277.581509, 327.158884)"><g/></g></g><g fill="#5e17eb" fill-opacity="0.302"><g transform="translate(1424.828301, 351.563205)"><g><path d="M 231.925781 -176.707031 C 231.925781 -201.003906 212.046875 -220.882812 187.75 -220.882812 L 11.042969 -220.882812 L 11.042969 0 L 55.21875 0 L 55.21875 -88.351562 L 81.175781 -88.351562 L 162.902344 -6.625 C 167.320312 -2.207031 172.839844 0 178.914062 0 L 231.925781 0 L 231.925781 -44.175781 L 187.75 -44.175781 L 143.574219 -88.351562 L 187.75 -88.351562 C 212.046875 -88.351562 231.925781 -108.234375 231.925781 -132.53125 Z M 187.75 -176.707031 L 187.75 -132.53125 L 55.21875 -132.53125 L 55.21875 -176.707031 Z M 187.75 -176.707031 "/></g></g></g><g fill="#5e17eb" fill-opacity="0.502"><g transform="translate(1412.626178, 339.361046)"><g><path d="M 231.925781 -176.707031 C 231.925781 -201.003906 212.046875 -220.882812 187.75 -220.882812 L 11.042969 -220.882812 L 11.042969 0 L 55.21875 0 L 55.21875 -88.351562 L 81.175781 -88.351562 L 162.902344 -6.625 C 167.320312 -2.207031 172.839844 0 178.914062 0 L 231.925781 0 L 231.925781 -44.175781 L 187.75 -44.175781 L 143.574219 -88.351562 L 187.75 -88.351562 C 212.046875 -88.351562 231.925781 -108.234375 231.925781 -132.53125 Z M 187.75 -176.707031 L 187.75 -132.53125 L 55.21875 -132.53125 L 55.21875 -176.707031 Z M 187.75 -176.707031 "/></g></g></g><g fill="#5e17eb" fill-opacity="1"><g transform="translate(1400.423983, 327.158884)"><g><path d="M 231.925781 -176.707031 C 231.925781 -201.003906 212.046875 -220.882812 187.75 -220.882812 L 11.042969 -220.882812 L 11.042969 0 L 55.21875 0 L 55.21875 -88.351562 L 81.175781 -88.351562 L 162.902344 -6.625 C 167.320312 -2.207031 172.839844 0 178.914062 0 L 231.925781 0 L 231.925781 -44.175781 L 187.75 -44.175781 L 143.574219 -88.351562 L 187.75 -88.351562 C 212.046875 -88.351562 231.925781 -108.234375 231.925781 -132.53125 Z M 187.75 -176.707031 L 187.75 -132.53125 L 55.21875 -132.53125 L 55.21875 -176.707031 Z M 187.75 -176.707031 "/></g></g></g><g clip-path="url(#5f184b77fb)"><path stroke-linecap="round" transform="matrix(-0.457011, 0.595723, -0.595065, -0.456506, 895.159414, 128.829026)" fill="none" stroke-linejoin="miter" d="M 46.000043 45.997122 L 349.573004 46.00088 " stroke="#5e17eb" stroke-width="92" stroke-opacity="1" stroke-miterlimit="4"/></g><path stroke-linecap="round" transform="matrix(0.000000000000000046, 0.7506, -0.75, 0.000000000000000046, 888.863598, 99.358344)" fill="none" stroke-linejoin="miter" d="M 46.001005 46.000428 L 285.736155 46.000428 " stroke="#5e17eb" stroke-width="92" stroke-opacity="1" stroke-miterlimit="4"/><g clip-path="url(#83aeb9a078)"><g mask="url(#f7e48ad9bd)"><g transform="matrix(1, 0, 0, 1, 1033, 0.000000000000022697)"><g clip-path="url(#64bdf67e39)"><g clip-path="url(#db14c56eec)"><path stroke-linecap="round" transform="matrix(0.457011, -0.595723, 0.595065, 0.456506, 145.475814, 322.215992)" fill="none" stroke-linejoin="miter" d="M 45.999285 46.000208 L 349.569056 45.999851 " stroke="#5e17eb" stroke-width="92" stroke-opacity="1" stroke-miterlimit="4"/></g></g></g></g></g><path stroke-linecap="round" transform="matrix(0.000000000000000046, -0.7506, 0.75, 0.000000000000000046, 1184.776064, 351.686674)" fill="none" stroke-linejoin="miter" d="M 45.998531 46.001711 L 285.733681 46.001711 " stroke="#5e17eb" stroke-width="92" stroke-opacity="1" stroke-miterlimit="4"/><g clip-path="url(#5eef51fb38)"><path stroke-linecap="round" transform="matrix(-0.456635, 0.595233, -0.595065, -0.456506, 451.190424, 41.01661)" fill="none" stroke-linejoin="miter" d="M 48.001718 48.001705 L 504.852832 48.000385 " stroke="#5e17eb" stroke-width="96" stroke-opacity="1" stroke-miterlimit="4"/></g><g clip-path="url(#03ab806886)"><g mask="url(#b86966445d)"><g transform="matrix(1, 0, 0, 1, 205, 0.000000000000022697)"><g clip-path="url(#53a10194cf)"><g clip-path="url(#4edc8e266a)"><path stroke-linecap="round" transform="matrix(-0.452252, 0.598738, -0.598462, -0.452043, 454.643262, 40.472687)" fill="none" stroke-linejoin="miter" d="M 48.00012 47.996668 L 493.758526 48.001023 " stroke="#5e17eb" stroke-width="96" stroke-opacity="1" stroke-miterlimit="4"/></g></g></g></g></g><path stroke-linecap="round" transform="matrix(0.000000000000000046, 0.750607, -0.75, 0.000000000000000046, 439.863195, 7.268913)" fill="none" stroke-linejoin="miter" d="M 47.998467 47.99989 L 415.638657 47.99989 " stroke="#5e17eb" stroke-width="96" stroke-opacity="1" stroke-miterlimit="4"/><path stroke-linecap="round" transform="matrix(0.000000000000000046, 0.749546, -0.75, 0.000000000000000046, 648.4837, 6.777593)" fill="none" stroke-linejoin="miter" d="M 47.997497 47.999104 L 416.293548 47.999104 " stroke="#5e17eb" stroke-width="96" stroke-opacity="1" stroke-miterlimit="4"/></svg>