<svg xmlns="http://www.w3.org/2000/svg" xmlns:xlink="http://www.w3.org/1999/xlink" width="500" zoomAndPan="magnify" viewBox="0 0 375 374.999991" height="500" preserveAspectRatio="xMidYMid meet" version="1.0"><defs><g/><clipPath id="f2badcbc03"><path d="M 37.5 37.5 L 337.5 37.5 L 337.5 337.5 L 37.5 337.5 Z M 37.5 37.5 " clip-rule="nonzero"/></clipPath><clipPath id="7dddda0b2f"><path d="M 187.5 37.5 C 104.65625 37.5 37.5 104.65625 37.5 187.5 C 37.5 270.34375 104.65625 337.5 187.5 337.5 C 270.34375 337.5 337.5 270.34375 337.5 187.5 C 337.5 104.65625 270.34375 37.5 187.5 37.5 " clip-rule="nonzero"/></clipPath></defs><g clip-path="url(#f2badcbc03)"><g clip-path="url(#7dddda0b2f)"><path fill="#6d6bd1" d="M 37.5 37.5 L 337.5 37.5 L 337.5 337.5 L 37.5 337.5 Z M 37.5 37.5 " fill-opacity="1" fill-rule="nonzero"/></g></g><g fill="#fdfdfd" fill-opacity="1"><g transform="translate(185.531844, 184.021211)"><g><path d="M 115.234375 0 L 115.234375 -21.949219 L 27.4375 -21.949219 L 27.4375 -87.796875 L 115.234375 -87.796875 L 115.234375 -109.746094 L 27.4375 -109.746094 C 15.363281 -109.746094 5.488281 -99.871094 5.488281 -87.796875 L 5.488281 -21.949219 C 5.488281 -9.878906 15.363281 0 27.4375 0 Z M 115.234375 0 "/></g></g></g><g fill="#fdfdfd" fill-opacity="1"><g transform="translate(67.5, 299.851619)"><g><path d="M 27.4375 -109.746094 C 15.363281 -109.746094 5.488281 -99.871094 5.488281 -87.796875 L 5.488281 0 L 27.4375 0 L 27.4375 -87.796875 L 49.386719 -87.796875 L 49.386719 0 L 71.335938 0 L 71.335938 -87.796875 L 93.285156 -87.796875 L 93.285156 0 L 115.234375 0 L 115.234375 -87.796875 C 115.234375 -99.871094 105.359375 -109.746094 93.285156 -109.746094 Z M 27.4375 -109.746094 "/></g></g></g><g fill="#fdfdfd" fill-opacity="1"><g transform="translate(185.531844, 299.851619)"><g><path d="M 115.234375 -109.746094 L 27.4375 -109.746094 C 15.363281 -109.746094 5.488281 -99.871094 5.488281 -87.796875 L 5.488281 -21.949219 C 5.488281 -9.878906 15.363281 0 27.4375 0 L 115.234375 0 L 115.234375 -21.949219 L 27.4375 -21.949219 L 27.4375 -43.898438 L 115.234375 -43.898438 L 115.234375 -65.847656 L 27.4375 -65.847656 L 27.4375 -87.796875 L 115.234375 -87.796875 Z M 115.234375 -109.746094 "/></g></g></g><g fill="#fdfdfd" fill-opacity="1"><g transform="translate(67.5, 184.021211)"><g><path d="M 27.4375 -109.746094 C 15.363281 -109.746094 5.488281 -99.871094 5.488281 -87.796875 L 5.488281 0 L 27.4375 0 L 27.4375 -43.898438 L 93.285156 -43.898438 L 93.285156 0 L 115.234375 0 L 115.234375 -87.796875 C 115.234375 -99.871094 105.359375 -109.746094 93.285156 -109.746094 Z M 27.4375 -87.796875 L 93.285156 -87.796875 L 93.285156 -65.847656 L 27.4375 -65.847656 Z M 27.4375 -87.796875 "/></g></g></g></svg>